<?xml version="1.0" encoding="UTF-8" standalone="no"?>
<svg
   xmlns:dc="http://purl.org/dc/elements/1.1/"
   xmlns:cc="http://creativecommons.org/ns#"
   xmlns:rdf="http://www.w3.org/1999/02/22-rdf-syntax-ns#"
   xmlns:svg="http://www.w3.org/2000/svg"
   xmlns="http://www.w3.org/2000/svg"
   xmlns:sodipodi="http://sodipodi.sourceforge.net/DTD/sodipodi-0.dtd"
   xmlns:inkscape="http://www.inkscape.org/namespaces/inkscape"
   version="1.1"
   width="3.5687cm"
   height="3.01498cm"
   viewBox="0 0 14050 11870 "
   id="svg1207"
   sodipodi:docname="HelloBoard-brd.svg"
   inkscape:version="0.92.2 5c3e80d, 2017-08-06">
  <metadata
     id="metadata1213">
    <rdf:RDF>
      <cc:Work
         rdf:about="">
        <dc:format>image/svg+xml</dc:format>
        <dc:type
           rdf:resource="http://purl.org/dc/dcmitype/StillImage" />
      </cc:Work>
    </rdf:RDF>
  </metadata>
  <defs
     id="defs1211" />
  <sodipodi:namedview
     pagecolor="#ffffff"
     bordercolor="#666666"
     borderopacity="1"
     objecttolerance="10"
     gridtolerance="10"
     guidetolerance="10"
     inkscape:pageopacity="0"
     inkscape:pageshadow="2"
     inkscape:window-width="1285"
     inkscape:window-height="764"
     id="namedview1209"
     showgrid="false"
     inkscape:zoom="4.721286"
     inkscape:cx="47.796398"
     inkscape:cy="70.539904"
     inkscape:window-x="0"
     inkscape:window-y="0"
     inkscape:window-maximized="0"
     inkscape:current-layer="layer5" />
  <title
     id="title815">SVG Picture created as HelloBoard-brd.svg date 2018/03/02 16:16:43 </title>
  <desc
     id="desc817">Picture generated by PCBNEW </desc>
  <g
     style="fill:#000000; fill-opacity:1;stroke:#000000; stroke-opacity:1; stroke-linecap:round; stroke-linejoin:round; "
     transform="translate(0 0) scale(1 1)"
     id="g819" />
  <g
     style="fill:#000000; fill-opacity:0.0;  stroke:#000000; stroke-width:-0.000393701; stroke-opacity:1;  stroke-linecap:round; stroke-linejoin:round;"
     id="g821" />
  <g
     style="fill:#000000; fill-opacity:1.0;  stroke:#000000; stroke-width:39.3701; stroke-opacity:1;  stroke-linecap:round; stroke-linejoin:round;"
     id="g827" />
  <g
     style="fill:#FFFFFF; fill-opacity:1.0;  stroke:#FFFFFF; stroke-width:39.3701; stroke-opacity:1;  stroke-linecap:round; stroke-linejoin:round;"
     id="g829" />
  <g
     style="fill:#FFFFFF; fill-opacity:1.0;  stroke:#FFFFFF; stroke-width:39.3701; stroke-opacity:1;  stroke-linecap:round; stroke-linejoin:round;"
     id="g835" />
  <g
     style="fill:#000000; fill-opacity:1.0;  stroke:#000000; stroke-width:39.3701; stroke-opacity:1;  stroke-linecap:round; stroke-linejoin:round;"
     id="g837" />
  <g
     style="fill:#000000; fill-opacity:1.0;  stroke:#000000; stroke-width:39.3701; stroke-opacity:1;  stroke-linecap:round; stroke-linejoin:round;"
     id="g937" />
  <g
     style="fill:#000000; fill-opacity:1.0;  stroke:#000000; stroke-width:157.48; stroke-opacity:1;  stroke-linecap:round; stroke-linejoin:round;"
     id="g939" />
  <g
     style="fill:#FFFFFF; fill-opacity:0.0;  stroke:#FFFFFF; stroke-width:157.48; stroke-opacity:1;  stroke-linecap:round; stroke-linejoin:round;"
     id="g1181" />
  <g
     style="fill:#FFFFFF; fill-opacity:1.0;  stroke:#FFFFFF; stroke-width:39.3701; stroke-opacity:1;  stroke-linecap:round; stroke-linejoin:round;"
     id="g1187" />
  <g
     style="fill:#000000; fill-opacity:1.0;  stroke:#000000; stroke-width:39.3701; stroke-opacity:1;  stroke-linecap:round; stroke-linejoin:round;"
     id="g1189" />
  <g
     inkscape:groupmode="layer"
     id="layer1"
     inkscape:label="Pads"
     style="display:inline">
    <g
       style="fill:#000000;fill-opacity:1;stroke:#000000;stroke-width:0;stroke-linecap:round;stroke-linejoin:round;stroke-opacity:1"
       id="g935"
       transform="translate(-2083.3332,-208.33333)">
      <polyline
         style="fill-rule:evenodd"
         points="6571,3606 7441,3606 7441,3846 6571,3846 6571,3606 "
         id="polyline839" />
      <polyline
         style="fill-rule:evenodd"
         points="8621,3606 9491,3606 9491,3846 8621,3846 8621,3606 "
         id="polyline841" />
      <polyline
         style="fill-rule:evenodd"
         points="6571,4106 7441,4106 7441,4346 6571,4346 6571,4106 "
         id="polyline843" />
      <polyline
         style="fill-rule:evenodd"
         points="6571,4606 7441,4606 7441,4846 6571,4846 6571,4606 "
         id="polyline845" />
      <polyline
         style="fill-rule:evenodd"
         points="8621,4106 9491,4106 9491,4346 8621,4346 8621,4106 "
         id="polyline847" />
      <polyline
         style="fill-rule:evenodd"
         points="8621,4606 9491,4606 9491,4846 8621,4846 8621,4606 "
         id="polyline849" />
      <polyline
         style="fill-rule:evenodd"
         points="6571,5106 7441,5106 7441,5346 6571,5346 6571,5106 "
         id="polyline851" />
      <polyline
         style="fill-rule:evenodd"
         points="8621,5106 9491,5106 9491,5346 8621,5346 8621,5106 "
         id="polyline853" />
      <polyline
         style="fill-rule:evenodd"
         points="6571,5606 7441,5606 7441,5846 6571,5846 6571,5606 "
         id="polyline855" />
      <polyline
         style="fill-rule:evenodd"
         points="6571,6106 7441,6106 7441,6346 6571,6346 6571,6106 "
         id="polyline857" />
      <polyline
         style="fill-rule:evenodd"
         points="8621,5606 9491,5606 9491,5846 8621,5846 8621,5606 "
         id="polyline859" />
      <polyline
         style="fill-rule:evenodd"
         points="8621,6106 9491,6106 9491,6346 8621,6346 8621,6106 "
         id="polyline861" />
      <polyline
         style="fill-rule:evenodd"
         points="6571,6606 7441,6606 7441,6846 6571,6846 6571,6606 "
         id="polyline863" />
      <polyline
         style="fill-rule:evenodd"
         points="8621,6606 9491,6606 9491,6846 8621,6846 8621,6606 "
         id="polyline865" />
      <polyline
         style="fill-rule:evenodd"
         points="9253,7663 9753,7663 9753,8663 9253,8663 9253,7663 "
         id="polyline867" />
      <polyline
         style="fill-rule:evenodd"
         points="8253,7663 8753,7663 8753,8663 8253,8663 8253,7663 "
         id="polyline869" />
      <polyline
         style="fill-rule:evenodd"
         points="7253,7663 7753,7663 7753,8663 7253,8663 7253,7663 "
         id="polyline871" />
      <polyline
         style="fill-rule:evenodd"
         points="9253,9812 9753,9812 9753,10812 9253,10812 9253,9812 "
         id="polyline873" />
      <polyline
         style="fill-rule:evenodd"
         points="8253,9812 8753,9812 8753,10812 8253,10812 8253,9812 "
         id="polyline875" />
      <polyline
         style="fill-rule:evenodd"
         points="7253,9812 7753,9812 7753,10812 7253,10812 7253,9812 "
         id="polyline877" />
      <polyline
         style="fill-rule:evenodd"
         points="10681,1716 10681,1216 11681,1216 11681,1716 10681,1716 "
         id="polyline879" />
      <polyline
         style="fill-rule:evenodd"
         points="10681,2716 10681,2216 11681,2216 11681,2716 10681,2716 "
         id="polyline881" />
      <polyline
         style="fill-rule:evenodd"
         points="10681,3716 10681,3216 11681,3216 11681,3716 10681,3716 "
         id="polyline883" />
      <polyline
         style="fill-rule:evenodd"
         points="10681,4716 10681,4216 11681,4216 11681,4716 10681,4716 "
         id="polyline885" />
      <polyline
         style="fill-rule:evenodd"
         points="10681,5716 10681,5216 11681,5216 11681,5716 10681,5716 "
         id="polyline887" />
      <polyline
         style="fill-rule:evenodd"
         points="10681,6716 10681,6216 11681,6216 11681,6716 10681,6716 "
         id="polyline889" />
      <polyline
         style="fill-rule:evenodd"
         points="4821,6216 5571,6216 5571,6716 4821,6716 4821,6216 "
         id="polyline891" />
      <polyline
         style="fill-rule:evenodd"
         points="4821,7516 5571,7516 5571,8016 4821,8016 4821,7516 "
         id="polyline893" />
      <polyline
         style="fill-rule:evenodd"
         points="6516,10378 5766,10378 5766,9878 6516,9878 6516,10378 "
         id="polyline895" />
      <polyline
         style="fill-rule:evenodd"
         points="6516,9078 5766,9078 5766,8578 6516,8578 6516,9078 "
         id="polyline897" />
      <polyline
         style="fill-rule:evenodd"
         points="6869,1491 7619,1491 7619,1991 6869,1991 6869,1491 "
         id="polyline899" />
      <polyline
         style="fill-rule:evenodd"
         points="6869,2791 7619,2791 7619,3291 6869,3291 6869,2791 "
         id="polyline901" />
      <polyline
         style="fill-rule:evenodd"
         points="4154,8016 3404,8016 3404,7516 4154,7516 4154,8016 "
         id="polyline903" />
      <polyline
         style="fill-rule:evenodd"
         points="4154,6716 3404,6716 3404,6216 4154,6216 4154,6716 "
         id="polyline905" />
      <polyline
         style="fill-rule:evenodd"
         points="4837,8473 4837,9223 4337,9223 4337,8473 4837,8473 "
         id="polyline907" />
      <polyline
         style="fill-rule:evenodd"
         points="3537,8473 3537,9223 3037,9223 3037,8473 3537,8473 "
         id="polyline909" />
      <polyline
         style="fill-rule:evenodd"
         points="10061,8405 10061,7805 10961,7805 10961,8405 10061,8405 "
         id="polyline911" />
      <polyline
         style="fill-rule:evenodd"
         points="12661,8405 12661,7805 13561,7805 13561,8405 12661,8405 "
         id="polyline913" />
      <polyline
         style="fill-rule:evenodd"
         points="10061,10205 10061,9605 10961,9605 10961,10205 10061,10205 "
         id="polyline915" />
      <polyline
         style="fill-rule:evenodd"
         points="12661,10205 12661,9605 13561,9605 13561,10205 12661,10205 "
         id="polyline917" />
      <polyline
         style="fill-rule:evenodd"
         points="5492,5127 5492,5442 3956,5442 3956,5127 5492,5127 "
         id="polyline919" />
      <polyline
         style="fill-rule:evenodd"
         points="3956,4911 3956,4596 5492,4596 5492,4911 3956,4911 "
         id="polyline921" />
      <polyline
         style="fill-rule:evenodd"
         points="3956,4379 3956,4064 5492,4064 5492,4379 3956,4379 "
         id="polyline923" />
      <polyline
         style="fill-rule:evenodd"
         points="8233,1821 8233,1071 8733,1071 8733,1821 8233,1821 "
         id="polyline925" />
      <polyline
         style="fill-rule:evenodd"
         points="9533,1821 9533,1071 10033,1071 10033,1821 9533,1821 "
         id="polyline927" />
      <polyline
         style="fill-rule:evenodd"
         points="6516,3291 5766,3291 5766,2791 6516,2791 6516,3291 "
         id="polyline929" />
      <polyline
         style="fill-rule:evenodd"
         points="6516,1991 5766,1991 5766,1491 6516,1491 6516,1991 "
         id="polyline931" />
    </g>
  </g>
  <g
     inkscape:groupmode="layer"
     id="layer5"
     inkscape:label="CutsDone"
     style="display:inline;opacity:1">
    <path
       style="fill:none;stroke:#000000;stroke-width:104.16665649px;stroke-linecap:butt;stroke-linejoin:miter;stroke-opacity:1"
       d="M 150.66686,9572.6664 1235.6668,10657.666 h 2195 l 953.9999,945 h 3125.9999 l 1095.0002,-1096 3139.0012,-7 V 777.66664 l -927,-926.99997 H 4699.6667 L 150.66686,4399.6665 Z"
       id="path1690"
       inkscape:connector-curvature="0" />
    <path
       style="fill:none;stroke:#000000;stroke-width:104.16665649px;stroke-linecap:butt;stroke-linejoin:miter;stroke-opacity:1"
       d="M -220.63197,12178.885 16150.259,12223.011 16106.133,-970.78063 -397.13753,-926.65423 -2603.4571,9398.9216 Z"
       id="path1692"
       inkscape:connector-curvature="0" />
    <path
       style="opacity:1;fill:#000000;fill-opacity:1;stroke:#000000;stroke-width:0.64042342;stroke-miterlimit:4;stroke-dasharray:none;stroke-opacity:1"
       d="M 11.383625,116.18601 -1.8518902,116.06782 -13.038932,103.03022 -24.225975,89.992613 -13.778936,41.082791 -3.3318971,-7.8270351 7.2547146,-8.0856666 C 13.077351,-8.2279139 48.48446,-8.3708834 85.937179,-8.4033766 l 68.095851,-0.059079 V 31.711121 c 0,22.095466 0.12649,50.212805 0.28109,62.482975 l 0.28108,22.309404 -64.98803,-0.0996 c -35.743417,-0.0548 -70.944013,-0.15283 -78.223545,-0.21784 z m 65.975383,-9.21382 5.282454,-5.29516 h 15.36234 15.362348 V 54.345148 7.0132684 l -4.54663,-4.5607611 -4.54661,-4.5607616 H 74.611231 44.949558 L 22.817271,20.027044 0.68498346,42.162344 v 24.985799 24.985802 l 5.39495884,5.406963 5.3949587,5.406962 h 10.603673 10.60367 l 4.645298,4.65974 4.645298,4.65975 h 15.051856 15.051857 z"
       id="path1702"
       inkscape:connector-curvature="0"
       transform="scale(104.16666)" />
    <path
       style="opacity:1;fill:#000000;fill-opacity:1;stroke:#000000;stroke-width:0.64042342;stroke-miterlimit:4;stroke-dasharray:none;stroke-opacity:1"
       d="m 61.717142,117.45663 c -58.5552631,-0.0999 -63.7846734,-0.1654 -64.4951383,-0.80836 -0.425235,-0.38484 -0.7731542,-0.89033 -0.7731542,-1.12331 0,-0.23299 0.3486055,-0.10813 0.7746792,0.27746 0.6511561,0.58929 1.6812207,0.68711 6.4601043,0.61346 l 5.685425,-0.0876 -5.7531405,-0.23009 -5.7531405,-0.23009 -10.571865,-12.28479 c -5.814526,-6.756636 -10.89831,-12.756116 -11.297299,-13.332179 -0.398988,-0.57606 -0.725433,-0.825593 -0.725433,-0.554515 0,0.271079 0.190626,0.610682 0.423613,0.754676 0.232988,0.143995 0.423614,0.48203 0.423614,0.751194 0,0.282529 -0.299846,0.189541 -0.709375,-0.219987 -0.663424,-0.663425 -0.02622,-3.908609 9.837049,-50.098248 5.8005328,-27.163884 10.6471195,-49.5431879 10.7701927,-49.7317891 0.1230728,-0.1886011 35.8872213,-0.444194 79.4758873,-0.5679843 l 79.252119,-0.2250732 0.28104,38.3965756 c 0.15457,21.118118 0.28115,49.786481 0.28129,63.707476 l 2.6e-4,25.310904 -14.93237,-0.10452 c -8.2128,-0.0575 -43.607267,-0.15342 -78.654358,-0.21319 z m 63.159338,-0.8472 c -16.61858,-0.0614 -43.687478,-0.0614 -60.153106,2e-5 -16.465632,0.0614 -2.868617,0.11162 30.21559,0.11161 33.084206,-10e-6 46.556086,-0.0502 29.937516,-0.11163 z m -67.636635,-4.65972 -15.247608,-0.11689 -4.026801,-3.91296 -4.026801,-3.91296 4.015961,4.13023 4.015961,4.13023 15.258448,-0.10038 15.258449,-0.10038 z m 20.119163,-6.24836 5.282454,-5.29516 h 14.944204 14.944204 l -0.11138,-46.768879 c -0.0613,-25.72288 0.0316,-46.6804929 0.20633,-46.5724719 0.17474,0.108021 0.31771,21.3422629 0.31771,47.1872029 v 46.990798 l -15.355983,0.11665 -15.355985,0.11663 15.567792,0.10046 15.567796,0.10045 V 54.345148 7.0132684 l -4.54663,-4.5607611 -4.54661,-4.5607616 -29.660167,0.1029558 -29.66016,0.1029563 29.422877,0.1117767 c 16.182583,0.061477 29.5646,0.2534293 29.73781,0.4265605 0.17322,0.1731312 -12.967226,0.2632808 -29.200985,0.2003319 L 45.396352,-1.278125 23.676088,20.439068 1.9558236,42.156261 v 25.001354 25.001353 l 4.9838201,4.970836 4.9838193,4.970836 h 10.591543 10.591538 l 4.432805,4.44794 4.432805,4.44794 h 15.052199 15.0522 z M 22.289267,102.63073 11.487125,102.51019 6.2978609,97.334316 1.1085968,92.158438 1.0061176,66.947087 0.90363786,41.735732 0.79091222,66.931431 0.67818615,92.127133 l 5.39835755,5.410365 5.3983573,5.410372 10.808253,-0.0983 10.808254,-0.0983 z M -23.595217,85.923904 c -0.135229,-0.337929 -0.235607,-0.237554 -0.255933,0.255935 -0.01839,0.446556 0.08173,0.696755 0.22249,0.555992 0.140763,-0.140767 0.155812,-0.506133 0.03344,-0.811927 z m 0.423613,-2.118067 c -0.135228,-0.337929 -0.235606,-0.237554 -0.255933,0.255935 -0.01839,0.446556 0.08173,0.696755 0.22249,0.555992 0.140763,-0.140767 0.155813,-0.506133 0.03344,-0.811927 z m 0.847227,-3.81252 c -0.135228,-0.33793 -0.235606,-0.237554 -0.255933,0.255934 -0.01839,0.446556 0.08173,0.696755 0.22249,0.555993 0.140763,-0.140767 0.155813,-0.506134 0.03344,-0.811927 z m 0.423613,-2.118067 c -0.135228,-0.33793 -0.235606,-0.237554 -0.255933,0.255934 -0.01839,0.446556 0.08173,0.696755 0.22249,0.555993 0.140763,-0.140767 0.155813,-0.506134 0.03344,-0.811927 z m 0.847227,-3.812521 c -0.135228,-0.337929 -0.235606,-0.237554 -0.255933,0.255935 -0.01839,0.446556 0.08173,0.696755 0.22249,0.555992 0.140763,-0.140767 0.155813,-0.506133 0.03344,-0.811927 z m 0.423614,-2.118067 c -0.135229,-0.337929 -0.235607,-0.237554 -0.255934,0.255935 -0.01839,0.446556 0.08173,0.696755 0.222491,0.555992 0.140763,-0.140767 0.155812,-0.506133 0.03344,-0.811927 z m 0.423613,-2.118067 c -0.135228,-0.337929 -0.235607,-0.237554 -0.255933,0.255935 -0.01839,0.446556 0.08173,0.696755 0.22249,0.555992 0.140763,-0.140767 0.155813,-0.506133 0.03344,-0.811927 z m 0.423613,-1.694453 c -0.135228,-0.33793 -0.235606,-0.237554 -0.255933,0.255934 -0.01839,0.446556 0.08173,0.696755 0.22249,0.555993 0.140763,-0.140767 0.155813,-0.506134 0.03345,-0.811927 z m 0.423614,-2.118067 c -0.135229,-0.33793 -0.235607,-0.237554 -0.255933,0.255934 -0.01839,0.446556 0.08173,0.696755 0.22249,0.555993 0.140763,-0.140767 0.155812,-0.506134 0.03344,-0.811927 z M 154.45665,28.39191 V -8.8860686 l -64.07153,0.1045223 -64.071526,0.1045223 63.859719,0.1086551 63.859717,0.1086552 V 28.605088 c 0,20.385642 0.0953,37.064801 0.21181,37.064801 0.11649,0 0.21181,-16.775091 0.21181,-37.277979 z M -18.93547,63.896008 c -0.135228,-0.33793 -0.235606,-0.237554 -0.255933,0.255934 -0.01839,0.446556 0.08173,0.696755 0.22249,0.555993 0.140763,-0.140767 0.155813,-0.506134 0.03344,-0.811927 z m 0.423614,-1.694454 c -0.135229,-0.337929 -0.235607,-0.237554 -0.255934,0.255935 -0.01839,0.446556 0.08173,0.696755 0.222491,0.555992 0.140763,-0.140767 0.155812,-0.506133 0.03344,-0.811927 z m 0.423613,-2.118067 c -0.135228,-0.337929 -0.235607,-0.237554 -0.255933,0.255935 -0.01839,0.446556 0.08173,0.696755 0.22249,0.555992 0.140763,-0.140767 0.155813,-0.506133 0.03344,-0.811927 z m 0.423613,-2.118067 c -0.135228,-0.337929 -0.235606,-0.237554 -0.255933,0.255935 -0.01839,0.446556 0.08173,0.696755 0.22249,0.555992 0.140763,-0.140767 0.155813,-0.506133 0.03345,-0.811927 z m 0.847227,-3.81252 c -0.135228,-0.33793 -0.235606,-0.237554 -0.255933,0.255934 -0.01839,0.446556 0.08173,0.696755 0.22249,0.555993 0.140763,-0.140767 0.155813,-0.506134 0.03344,-0.811927 z m 0.423614,-2.118067 c -0.135229,-0.33793 -0.235607,-0.237554 -0.255934,0.255934 -0.01839,0.446556 0.08173,0.696755 0.222491,0.555993 0.140762,-0.140767 0.155812,-0.506134 0.03344,-0.811927 z m 0.847226,-3.812521 c -0.135228,-0.337929 -0.235606,-0.237554 -0.255933,0.255935 -0.01839,0.446556 0.08173,0.696755 0.22249,0.555992 0.140763,-0.140767 0.155813,-0.506133 0.03344,-0.811927 z m 0.423614,-2.118067 c -0.135229,-0.337929 -0.235607,-0.237554 -0.255933,0.255935 -0.01839,0.446556 0.08173,0.696755 0.22249,0.555992 0.140763,-0.140767 0.155812,-0.506133 0.03344,-0.811927 z m 0.847227,-3.812521 c -0.135229,-0.337929 -0.235607,-0.237553 -0.255934,0.255935 -0.01839,0.446556 0.08173,0.696755 0.222491,0.555993 0.140762,-0.140767 0.155812,-0.506134 0.03344,-0.811928 z m 0.423613,-2.118066 c -0.135228,-0.33793 -0.235607,-0.237554 -0.255933,0.255934 -0.01839,0.446556 0.08173,0.696755 0.22249,0.555993 0.140763,-0.140767 0.155813,-0.506134 0.03344,-0.811927 z m 0.847227,-3.812521 c -0.135229,-0.337929 -0.235607,-0.237554 -0.255934,0.255934 -0.01839,0.446557 0.08173,0.696756 0.222491,0.555993 0.140763,-0.140767 0.155812,-0.506133 0.03344,-0.811927 z m 0.423613,-2.118067 c -0.135228,-0.337929 -0.235606,-0.237554 -0.255933,0.255935 -0.01839,0.446556 0.08173,0.696755 0.22249,0.555992 0.140763,-0.140767 0.155813,-0.506133 0.03344,-0.811927 z m 0.847227,-3.812521 c -0.135229,-0.33793 -0.235607,-0.237552 -0.255933,0.255934 -0.01839,0.446559 0.08173,0.696755 0.22249,0.555992 0.140763,-0.140763 0.155813,-0.50613 0.03344,-0.811926 z m 0.423613,-2.118066 c -0.135228,-0.337931 -0.235606,-0.237553 -0.255933,0.255933 -0.01839,0.446559 0.08173,0.696755 0.22249,0.555992 0.140763,-0.140763 0.155813,-0.50613 0.03344,-0.811925 z m 0.847227,-3.812521 c -0.135228,-0.33793 -0.235607,-0.237552 -0.255933,0.255933 -0.01839,0.446559 0.08173,0.696756 0.22249,0.555993 0.140763,-0.140764 0.155813,-0.50613 0.03344,-0.811926 z m 0.423613,-2.118067 c -0.135228,-0.33793 -0.235606,-0.237552 -0.255933,0.255933 -0.01839,0.446559 0.08173,0.696756 0.22249,0.555993 0.1407634,-0.140764 0.1558131,-0.50613 0.03345,-0.811926 z m 0.4236139,-2.118067 c -0.1352285,-0.33793 -0.2356066,-0.237552 -0.2559333,0.255933 -0.018393,0.446559 0.081727,0.696756 0.2224902,0.555993 0.140763,-0.140763 0.1558127,-0.50613 0.033443,-0.811926 z m 0.4236133,-1.694454 c -0.1352284,-0.33793 -0.2356065,-0.237552 -0.2559332,0.255934 -0.018393,0.446559 0.081727,0.696755 0.2224902,0.555992 0.140763,-0.140763 0.1558127,-0.50613 0.033443,-0.811926 z m 0.4236134,-2.118067 c -0.1352284,-0.33793 -0.2356065,-0.237552 -0.2559332,0.255934 -0.018393,0.446559 0.081727,0.696755 0.2224902,0.555992 0.140763,-0.140763 0.1558127,-0.50613 0.033443,-0.811926 z m 0.4236134,-2.118066 c -0.1352284,-0.337931 -0.2356065,-0.237553 -0.2559332,0.255933 -0.018393,0.446559 0.081727,0.696755 0.2224902,0.555992 0.1407629,-0.140763 0.1558127,-0.50613 0.033443,-0.811925 z m 0.4236134,-1.694454 c -0.1352284,-0.33793 -0.2356065,-0.237552 -0.2559332,0.255933 -0.018393,0.446559 0.081727,0.696756 0.2224902,0.555993 0.1407629,-0.140764 0.1558127,-0.50613 0.033444,-0.811926 z m 0.4236134,-2.118067 c -0.1352284,-0.33793 -0.2356065,-0.237552 -0.2559332,0.255933 -0.018393,0.446559 0.081727,0.696756 0.2224902,0.555993 0.1407629,-0.140764 0.1558126,-0.50613 0.033444,-0.811926 z M -7.0742948,8.402653 C -7.2095232,8.0647226 -7.3099014,8.1651008 -7.330228,8.6585862 -7.348621,9.1051451 -7.248501,9.3553417 -7.1077378,9.2145788 -6.9669749,9.0738155 -6.9519252,8.7084489 -7.0742938,8.402653 Z M -6.227068,4.5901325 c -0.1352284,-0.3379304 -0.2356066,-0.2375523 -0.2559332,0.2559332 -0.018393,0.4465588 0.081727,0.6967555 0.2224902,0.5559926 0.1407629,-0.1407634 0.1558126,-0.5061299 0.033444,-0.8119258 z m 0.4236134,-2.118067 C -5.938683,2.1341351 -6.0390612,2.2345133 -6.0593878,2.7279987 c -0.018393,0.4465589 0.081727,0.6967555 0.2224902,0.5559926 0.1407629,-0.1407633 0.1558126,-0.5061299 0.033444,-0.8119258 z m 0.8472268,-3.8125205 c -0.1352284,-0.3379304 -0.2356066,-0.2375523 -0.2559332,0.2559332 -0.018393,0.44655883 0.081727,0.69675549 0.2224902,0.55599257 0.1407629,-0.14076334 0.1558126,-0.50612987 0.033444,-0.81192577 z m 0.4236134,-2.118067 c -0.1352284,-0.3379304 -0.2356066,-0.2375522 -0.2559333,0.2559332 -0.018393,0.4465589 0.081727,0.6967555 0.2224903,0.5559926 0.1407629,-0.1407633 0.1558126,-0.5061299 0.033444,-0.8119258 z m 0.8472268,-3.8125206 c -0.1352284,-0.3379302 -0.2356066,-0.2375523 -0.2559333,0.2559332 -0.018393,0.446559 0.081727,0.6967557 0.2224903,0.5559925 0.1407629,-0.1407632 0.1558126,-0.5061297 0.033443,-0.8119257 z m 11.042282,-1.0832082 c -2.0386395,-0.077654 -5.3745949,-0.077654 -7.41323438,0 -2.03863942,0.077654 -0.37066172,0.1411893 3.70661718,0.1411893 4.0772789,0 5.7452567,-0.063535 3.7066172,-0.1411893 z"
       id="path1704"
       inkscape:connector-curvature="0"
       transform="scale(104.16666)" />
    <path
       style="opacity:1;fill:#000000;fill-opacity:1;stroke:#000000;stroke-width:0.32021171;stroke-miterlimit:4;stroke-dasharray:none;stroke-opacity:1"
       d="M 62.52932,117.69715 C 31.833234,117.61859 4.639854,117.48017 2.0995861,117.38957 l -4.6186689,-0.16473 -0.6764985,-0.84085 c -0.3720743,-0.46247 -1.2245483,-1.49296 -1.894387,-2.28997 l -1.2178885,-1.44911 V 56.555719 0.46652347 l 1.0664093,-4.85942877 c 0.5865252,-2.6726857 1.0881183,-4.8811376 1.1146511,-4.9076706 0.092433,-0.092433 158.9957664,-0.5804116 159.0763864,-0.4885101 0.12795,0.1458524 0.57188,83.818489 0.56714,106.896116 l -0.004,20.81001 -18.58604,-0.0385 c -10.22232,-0.0212 -43.701015,-0.1028 -74.3971,-0.18137 z m 14.720565,-12.27671 5.29199,-5.29516 h 14.877017 14.877018 l -0.0619,-46.292084 -0.0619,-46.2920804 -4.22972,-4.2297204 -4.22972,-4.22972047 -29.222769,0.007979 -29.222767,0.007979 L 23.715742,20.646498 2.1644111,42.195364 v 24.886023 24.88602 l 4.9228154,4.92616 4.9228155,4.926163 h 10.593917 10.593916 l 4.444158,4.44794 4.444158,4.44794 h 14.935852 14.935852 z"
       id="path1706"
       inkscape:connector-curvature="0"
       transform="scale(104.16666)" />
  </g>
  <g
     inkscape:groupmode="layer"
     id="layer2"
     inkscape:label="Traces"
     style="display:inline">
    <g
       style="fill:#000000;fill-opacity:0;stroke:#000000;stroke-width:157.47999573;stroke-linecap:round;stroke-linejoin:round;stroke-opacity:1"
       id="g1179"
       transform="translate(-2083.3332,-208.33333)">
      <path
         d="m 11181,3466 h 972"
         id="path941"
         inkscape:connector-curvature="0" />
      <path
         d="M 9133,1446 V 659"
         id="path943"
         inkscape:connector-curvature="0" />
      <path
         d="m 9133,659 h 3150"
         id="path945"
         inkscape:connector-curvature="0" />
      <path
         d="M 12283,659 V 3336"
         id="path947"
         inkscape:connector-curvature="0" />
      <path
         d="M 9133,1446 H 8483"
         id="path949"
         inkscape:connector-curvature="0" />
      <path
         d="m 12153,3466 130,-130"
         id="path951"
         inkscape:connector-curvature="0" />
      <path
         d="M 7006,3726 H 3547"
         id="path953"
         inkscape:connector-curvature="0" />
      <path
         d="M 3327,10128 2519,9320"
         id="path955"
         inkscape:connector-curvature="0" />
      <path
         d="M 2519,9320 V 6486"
         id="path957"
         inkscape:connector-curvature="0" />
      <path
         d="m 2519,6486 630,-630"
         id="path959"
         inkscape:connector-curvature="0" />
      <path
         d="M 3149,5856 V 4124"
         id="path961"
         inkscape:connector-curvature="0" />
      <path
         d="m 3149,4124 315,-315"
         id="path963"
         inkscape:connector-curvature="0" />
      <path
         d="M 4724,10128 H 6299"
         id="path965"
         inkscape:connector-curvature="0" />
      <path
         d="M 4724,10128 H 3327"
         id="path967"
         inkscape:connector-curvature="0" />
      <path
         d="m 3547,3726 -83,83"
         id="path969"
         inkscape:connector-curvature="0" />
      <path
         d="M 7006,3726 H 6826"
         id="path971"
         inkscape:connector-curvature="0" />
      <path
         d="M 6826,3726 6141,3041"
         id="path973"
         inkscape:connector-curvature="0" />
      <path
         d="m 7244,1741 h 944"
         id="path975"
         inkscape:connector-curvature="0" />
      <path
         d="m 8188,1741 295,-295"
         id="path977"
         inkscape:connector-curvature="0" />
      <path
         d="M 6141,3041 V 2391"
         id="path979"
         inkscape:connector-curvature="0" />
      <path
         d="M 7244,2391 V 1741"
         id="path981"
         inkscape:connector-curvature="0" />
      <path
         d="M 6141,2391 H 7244"
         id="path983"
         inkscape:connector-curvature="0" />
      <path
         d="m 6141,3041 h 180"
         id="path985"
         inkscape:connector-curvature="0" />
      <path
         d="m 6299,10128 v 610"
         id="path987"
         inkscape:connector-curvature="0" />
      <path
         d="m 9503,11155 v -843"
         id="path989"
         inkscape:connector-curvature="0" />
      <path
         d="m 9133,11525 370,-370"
         id="path991"
         inkscape:connector-curvature="0" />
      <path
         d="M 7086,11525 H 9133"
         id="path993"
         inkscape:connector-curvature="0" />
      <path
         d="m 6299,10738 787,787"
         id="path995"
         inkscape:connector-curvature="0" />
      <path
         d="m 9503,10312 v -259"
         id="path997"
         inkscape:connector-curvature="0" />
      <path
         d="m 3287,8848 h 650"
         id="path999"
         inkscape:connector-curvature="0" />
      <path
         d="m 6771,9478 677,834"
         id="path1001"
         inkscape:connector-curvature="0" />
      <path
         d="M 3937,9478 H 6771"
         id="path1003"
         inkscape:connector-curvature="0" />
      <path
         d="m 3937,8848 v 630"
         id="path1005"
         inkscape:connector-curvature="0" />
      <path
         d="m 2992,8533 v 20"
         id="path1007"
         inkscape:connector-curvature="0" />
      <path
         d="m 2992,8553 295,295"
         id="path1009"
         inkscape:connector-curvature="0" />
      <path
         d="m 3779,6466 v 492"
         id="path1011"
         inkscape:connector-curvature="0" />
      <path
         d="M 2992,7273 V 8533"
         id="path1013"
         inkscape:connector-curvature="0" />
      <path
         d="m 3149,7116 -157,157"
         id="path1015"
         inkscape:connector-curvature="0" />
      <path
         d="M 3622,7116 H 3149"
         id="path1017"
         inkscape:connector-curvature="0" />
      <path
         d="m 3779,6958 -157,158"
         id="path1019"
         inkscape:connector-curvature="0" />
      <path
         d="M 3622,4753 V 6308"
         id="path1021"
         inkscape:connector-curvature="0" />
      <path
         d="m 3622,6308 157,158"
         id="path1023"
         inkscape:connector-curvature="0" />
      <path
         d="m 9783,1446 h 1378"
         id="path1025"
         inkscape:connector-curvature="0" />
      <path
         d="m 11161,1446 20,20"
         id="path1027"
         inkscape:connector-curvature="0" />
      <path
         d="M 9056,2346 V 1996"
         id="path1029"
         inkscape:connector-curvature="0" />
      <path
         d="m 8229,2346 h 827"
         id="path1031"
         inkscape:connector-curvature="0" />
      <path
         d="M 8229,3726 V 2346"
         id="path1033"
         inkscape:connector-curvature="0" />
      <path
         d="m 9133,1919 453,-453"
         id="path1035"
         inkscape:connector-curvature="0" />
      <path
         d="m 9056,1996 77,-77"
         id="path1037"
         inkscape:connector-curvature="0" />
      <path
         d="m 10511,9905 h 2600"
         id="path1039"
         inkscape:connector-curvature="0" />
      <path
         d="m 8976,9320 h 949"
         id="path1041"
         inkscape:connector-curvature="0" />
      <path
         d="m 9925,9320 586,585"
         id="path1043"
         inkscape:connector-curvature="0" />
      <path
         d="m 7503,10312 h -55"
         id="path1045"
         inkscape:connector-curvature="0" />
      <path
         d="M 4724,4753 H 3622"
         id="path1047"
         inkscape:connector-curvature="0" />
      <path
         d="M 9056,3726 H 8229"
         id="path1049"
         inkscape:connector-curvature="0" />
      <path
         d="M 8229,3726 H 8106"
         id="path1051"
         inkscape:connector-curvature="0" />
      <path
         d="m 8106,3726 -75,75"
         id="path1053"
         inkscape:connector-curvature="0" />
      <path
         d="M 8031,3801 V 8848"
         id="path1055"
         inkscape:connector-curvature="0" />
      <path
         d="m 8031,8848 157,157"
         id="path1057"
         inkscape:connector-curvature="0" />
      <path
         d="m 8188,9005 h 630"
         id="path1059"
         inkscape:connector-curvature="0" />
      <path
         d="m 8818,9005 158,158"
         id="path1061"
         inkscape:connector-curvature="0" />
      <path
         d="m 8976,9163 v 157"
         id="path1063"
         inkscape:connector-curvature="0" />
      <path
         d="m 8976,9320 v 1733"
         id="path1065"
         inkscape:connector-curvature="0" />
      <path
         d="m 8976,11053 -158,157"
         id="path1067"
         inkscape:connector-curvature="0" />
      <path
         d="M 8818,11210 H 7716"
         id="path1069"
         inkscape:connector-curvature="0" />
      <path
         d="m 7716,11210 -213,-212"
         id="path1071"
         inkscape:connector-curvature="0" />
      <path
         d="m 7503,10998 v -686"
         id="path1073"
         inkscape:connector-curvature="0" />
      <path
         d="M 4724,4222 H 7002"
         id="path1075"
         inkscape:connector-curvature="0" />
      <path
         d="m 7002,4222 4,4"
         id="path1077"
         inkscape:connector-curvature="0" />
      <path
         d="m 4724,5285 h 886"
         id="path1079"
         inkscape:connector-curvature="0" />
      <path
         d="m 6169,4726 h 837"
         id="path1081"
         inkscape:connector-curvature="0" />
      <path
         d="m 5610,5285 559,-559"
         id="path1083"
         inkscape:connector-curvature="0" />
      <path
         d="m 9056,4226 h 1282"
         id="path1085"
         inkscape:connector-curvature="0" />
      <path
         d="m 10578,4466 h 603"
         id="path1087"
         inkscape:connector-curvature="0" />
      <path
         d="m 10338,4226 240,240"
         id="path1089"
         inkscape:connector-curvature="0" />
      <path
         d="m 9056,4726 h 1050"
         id="path1091"
         inkscape:connector-curvature="0" />
      <path
         d="m 10106,4726 740,740"
         id="path1093"
         inkscape:connector-curvature="0" />
      <path
         d="m 10846,5466 h 335"
         id="path1095"
         inkscape:connector-curvature="0" />
      <path
         d="m 7244,3041 h 20"
         id="path1097"
         inkscape:connector-curvature="0" />
      <path
         d="m 7264,3041 452,453"
         id="path1099"
         inkscape:connector-curvature="0" />
      <path
         d="M 7716,3494 V 5226"
         id="path1101"
         inkscape:connector-curvature="0" />
      <path
         d="m 7006,5226 h 710"
         id="path1103"
         inkscape:connector-curvature="0" />
      <path
         d="m 7503,7486 v 677"
         id="path1105"
         inkscape:connector-curvature="0" />
      <path
         d="m 7716,7273 -213,213"
         id="path1107"
         inkscape:connector-curvature="0" />
      <path
         d="M 7716,5226 V 7273"
         id="path1109"
         inkscape:connector-curvature="0" />
      <path
         d="M 6141,1741 V 1131"
         id="path1111"
         inkscape:connector-curvature="0" />
      <path
         d="m 8346,344 h 4252"
         id="path1113"
         inkscape:connector-curvature="0" />
      <path
         d="M 13111,699 V 8105"
         id="path1115"
         inkscape:connector-curvature="0" />
      <path
         d="M 13111,699 12755,344"
         id="path1117"
         inkscape:connector-curvature="0" />
      <path
         d="m 12598,344 h 157"
         id="path1119"
         inkscape:connector-curvature="0" />
      <path
         d="M 6929,344 H 8346"
         id="path1121"
         inkscape:connector-curvature="0" />
      <path
         d="M 6141,1131 6929,344"
         id="path1123"
         inkscape:connector-curvature="0" />
      <path
         d="M 10511,8105 V 7705"
         id="path1125"
         inkscape:connector-curvature="0" />
      <path
         d="m 10078,5226 158,315"
         id="path1127"
         inkscape:connector-curvature="0" />
      <path
         d="M 10236,5541 V 7588"
         id="path1129"
         inkscape:connector-curvature="0" />
      <path
         d="M 10078,5226 H 9056"
         id="path1131"
         inkscape:connector-curvature="0" />
      <path
         d="m 10511,7705 -275,-117"
         id="path1133"
         inkscape:connector-curvature="0" />
      <path
         d="m 10511,8105 h 2600"
         id="path1135"
         inkscape:connector-curvature="0" />
      <path
         d="m 5196,6466 h 965"
         id="path1137"
         inkscape:connector-curvature="0" />
      <path
         d="m 6401,6226 -102,102"
         id="path1139"
         inkscape:connector-curvature="0" />
      <path
         d="m 6401,6226 h 605"
         id="path1141"
         inkscape:connector-curvature="0" />
      <path
         d="m 6161,6466 138,-138"
         id="path1143"
         inkscape:connector-curvature="0" />
      <path
         d="M 9056,6226 H 8346"
         id="path1145"
         inkscape:connector-curvature="0" />
      <path
         d="M 8346,7431 V 6226"
         id="path1147"
         inkscape:connector-curvature="0" />
      <path
         d="M 8503,7588 8346,7431"
         id="path1149"
         inkscape:connector-curvature="0" />
      <path
         d="m 8503,7588 v 575"
         id="path1151"
         inkscape:connector-curvature="0" />
      <path
         d="M 6929,7588 V 9005"
         id="path1153"
         inkscape:connector-curvature="0" />
      <path
         d="m 6929,9005 472,473"
         id="path1155"
         inkscape:connector-curvature="0" />
      <path
         d="M 8503,9478 H 7401"
         id="path1157"
         inkscape:connector-curvature="0" />
      <path
         d="M 8503,10312 V 9478"
         id="path1159"
         inkscape:connector-curvature="0" />
      <path
         d="m 7006,7511 -77,77"
         id="path1161"
         inkscape:connector-curvature="0" />
      <path
         d="M 7006,7511 V 6726"
         id="path1163"
         inkscape:connector-curvature="0" />
      <path
         d="m 7006,6726 h 5"
         id="path1165"
         inkscape:connector-curvature="0" />
      <path
         d="M 9503,8163 V 7173"
         id="path1167"
         inkscape:connector-curvature="0" />
      <path
         d="M 9503,7173 9056,6726"
         id="path1169"
         inkscape:connector-curvature="0" />
      <path
         d="m 9031,6751 25,-25"
         id="path1171"
         inkscape:connector-curvature="0" />
      <path
         d="M 3779,7766 H 5196"
         id="path1173"
         inkscape:connector-curvature="0" />
      <path
         d="M 4587,8848 H 6121"
         id="path1175"
         inkscape:connector-curvature="0" />
      <path
         d="m 6121,8848 20,-20"
         id="path1177"
         inkscape:connector-curvature="0" />
    </g>
  </g>
  <g
     inkscape:groupmode="layer"
     id="layer3"
     inkscape:label="Cuts"
     style="display:inline" />
</svg>
