<?xml version="1.0" encoding="UTF-8" standalone="no"?>
<svg
   xmlns:dc="http://purl.org/dc/elements/1.1/"
   xmlns:cc="http://creativecommons.org/ns#"
   xmlns:rdf="http://www.w3.org/1999/02/22-rdf-syntax-ns#"
   xmlns:svg="http://www.w3.org/2000/svg"
   xmlns="http://www.w3.org/2000/svg"
   xmlns:sodipodi="http://sodipodi.sourceforge.net/DTD/sodipodi-0.dtd"
   xmlns:inkscape="http://www.inkscape.org/namespaces/inkscape"
   version="1.1"
   width="7.34568cm"
   height="2.69494cm"
   viewBox="0 0 28920 10610 "
   id="svg470"
   sodipodi:docname="FabISPMicro-brd.svg"
   inkscape:version="0.92.2 5c3e80d, 2017-08-06">
  <metadata
     id="metadata476">
    <rdf:RDF>
      <cc:Work
         rdf:about="">
        <dc:format>image/svg+xml</dc:format>
        <dc:type
           rdf:resource="http://purl.org/dc/dcmitype/StillImage" />
      </cc:Work>
    </rdf:RDF>
  </metadata>
  <defs
     id="defs474" />
  <sodipodi:namedview
     pagecolor="#ffffff"
     bordercolor="#666666"
     borderopacity="1"
     objecttolerance="10"
     gridtolerance="10"
     guidetolerance="10"
     inkscape:pageopacity="0"
     inkscape:pageshadow="2"
     inkscape:window-width="1285"
     inkscape:window-height="759"
     id="namedview472"
     showgrid="false"
     inkscape:zoom="3.3008096"
     inkscape:cx="28.950522"
     inkscape:cy="48.31685"
     inkscape:window-x="0"
     inkscape:window-y="0"
     inkscape:window-maximized="0"
     inkscape:current-layer="layer1" />
  <title
     id="title2">SVG Picture created as FabISPMicro-brd.svg date 2018/02/21 08:42:43 </title>
  <desc
     id="desc4">Picture generated by PCBNEW </desc>
  <g
     style="fill:#000000; fill-opacity:1;stroke:#000000; stroke-opacity:1; stroke-linecap:round; stroke-linejoin:round; "
     transform="translate(0 0) scale(1 1)"
     id="g6" />
  <g
     style="fill:#000000; fill-opacity:0.0;  stroke:#000000; stroke-width:-0.000393701; stroke-opacity:1;  stroke-linecap:round; stroke-linejoin:round;"
     id="g8" />
  <g
     style="fill:#FFFFFF; fill-opacity:0.0;  stroke:#FFFFFF; stroke-width:-0.000393701; stroke-opacity:1;  stroke-linecap:round; stroke-linejoin:round;"
     id="g10" />
  <g
     style="fill:#000000; fill-opacity:0.0;  stroke:#000000; stroke-width:-0.000393701; stroke-opacity:1;  stroke-linecap:round; stroke-linejoin:round;"
     id="g12" />
  <g
     style="fill:#000000; fill-opacity:0.0;  stroke:#000000; stroke-width:0; stroke-opacity:1;  stroke-linecap:round; stroke-linejoin:round;"
     id="g14" />
  <g
     style="fill:#000000;fill-opacity:1;stroke:#000000;stroke-width:0;stroke-linecap:round;stroke-linejoin:round;stroke-opacity:1"
     id="g58"
     transform="translate(-810.31495,295.3148)">
    <polyline
       style="fill-rule:evenodd"
       points="27096,7442 27096,8072 26309,8072 26309,7442 27096,7442 "
       id="polyline16" />
    <polyline
       style="fill-rule:evenodd"
       points="25521,7442 25521,8072 24734,8072 24734,7442 25521,7442 "
       id="polyline18" />
    <polyline
       style="fill-rule:evenodd"
       points="10679,5931 11151,5931 11151,6285 10679,6285 10679,5931 "
       id="polyline20" />
    <polyline
       style="fill-rule:evenodd"
       points="10679,7230 11151,7230 11151,7584 10679,7584 10679,7230 "
       id="polyline22" />
    <polyline
       style="fill-rule:evenodd"
       points="9179,5931 9651,5931 9651,6285 9179,6285 9179,5931 "
       id="polyline24" />
    <polyline
       style="fill-rule:evenodd"
       points="9179,7230 9651,7230 9651,7584 9179,7584 9179,7230 "
       id="polyline26" />
    <polyline
       style="fill-rule:evenodd"
       points="23234,2592 23234,1923 24021,1923 24021,2592 23234,2592 "
       id="polyline28" />
    <polyline
       style="fill-rule:evenodd"
       points="24809,2592 24809,1923 25596,1923 25596,2592 24809,2592 "
       id="polyline30" />
    <polyline
       style="fill-rule:evenodd"
       points="6750,4938 6080,4938 6080,4151 6750,4151 6750,4938 "
       id="polyline32" />
    <polyline
       style="fill-rule:evenodd"
       points="6750,3364 6080,3364 6080,2576 6750,2576 6750,3364 "
       id="polyline34" />
    <polyline
       style="fill-rule:evenodd"
       points="22415,4007 22415,3507 23415,3507 23415,4007 22415,4007 "
       id="polyline36" />
    <polyline
       style="fill-rule:evenodd"
       points="22415,5007 22415,4507 23415,4507 23415,5007 22415,5007 "
       id="polyline38" />
    <polyline
       style="fill-rule:evenodd"
       points="22415,6007 22415,5507 23415,5507 23415,6007 22415,6007 "
       id="polyline40" />
    <polyline
       style="fill-rule:evenodd"
       points="24564,4007 24564,3507 25564,3507 25564,4007 24564,4007 "
       id="polyline42" />
    <polyline
       style="fill-rule:evenodd"
       points="24564,5007 24564,4507 25564,4507 25564,5007 24564,5007 "
       id="polyline44" />
    <polyline
       style="fill-rule:evenodd"
       points="24564,6007 24564,5507 25564,5507 25564,6007 24564,6007 "
       id="polyline46" />
    <polyline
       style="fill-rule:evenodd"
       points="2700,4950 2700,4793 3232,4793 3232,4950 2700,4950 "
       id="polyline48" />
    <polyline
       style="fill-rule:evenodd"
       points="2700,5206 2700,5049 3232,5049 3232,5206 2700,5206 "
       id="polyline50" />
    <polyline
       style="fill-rule:evenodd"
       points="2700,5462 2700,5305 3232,5305 3232,5462 2700,5462 "
       id="polyline52" />
    <polyline
       style="fill-rule:evenodd"
       points="2700,5718 2700,5561 3232,5561 3232,5718 2700,5718 "
       id="polyline54" />
    <polyline
       style="fill-rule:evenodd"
       points="2700,5974 2700,5816 3232,5816 3232,5974 2700,5974 "
       id="polyline56" />
  </g>
  <g
     style="fill:#000000; fill-opacity:1.0;  stroke:#000000; stroke-width:393.701; stroke-opacity:1;  stroke-linecap:round; stroke-linejoin:round;"
     id="g60" />
  <g
     style="fill:#000000;fill-opacity:0;stroke:#000000;stroke-width:393.70098877;stroke-linecap:round;stroke-linejoin:round;stroke-opacity:1"
     id="g66"
     transform="translate(-810.31495,295.3148)">
    <path
       d="m 1795,4005 h 216"
       id="path62"
       inkscape:connector-curvature="0" />
    <path
       d="m 1795,6761 h 216"
       id="path64"
       inkscape:connector-curvature="0" />
  </g>
  <g
     style="fill:#000000; fill-opacity:0.0;  stroke:#000000; stroke-width:0; stroke-opacity:1;  stroke-linecap:round; stroke-linejoin:round;"
     id="g68" />
  <g
     style="fill:#000000;fill-opacity:1;stroke:#000000;stroke-width:0;stroke-linecap:round;stroke-linejoin:round;stroke-opacity:1"
     id="g140"
     transform="translate(-810.31495,295.3148)">
    <polyline
       style="fill-rule:evenodd"
       points="21750,7938 21080,7938 21080,7151 21750,7151 21750,7938 "
       id="polyline70" />
    <polyline
       style="fill-rule:evenodd"
       points="21750,6364 21080,6364 21080,5576 21750,5576 21750,6364 "
       id="polyline72" />
    <polyline
       style="fill-rule:evenodd"
       points="26580,3576 27250,3576 27250,4364 26580,4364 26580,3576 "
       id="polyline74" />
    <polyline
       style="fill-rule:evenodd"
       points="26580,5151 27250,5151 27250,5938 26580,5938 26580,5151 "
       id="polyline76" />
    <polyline
       style="fill-rule:evenodd"
       points="8234,4592 8234,3923 9021,3923 9021,4592 8234,4592 "
       id="polyline78" />
    <polyline
       style="fill-rule:evenodd"
       points="9809,4592 9809,3923 10596,3923 10596,4592 9809,4592 "
       id="polyline80" />
    <polyline
       style="fill-rule:evenodd"
       points="11234,4592 11234,3923 12021,3923 12021,4592 11234,4592 "
       id="polyline82" />
    <polyline
       style="fill-rule:evenodd"
       points="12809,4592 12809,3923 13596,3923 13596,4592 12809,4592 "
       id="polyline84" />
    <polyline
       style="fill-rule:evenodd"
       points="12734,7592 12734,6923 13521,6923 13521,7592 12734,7592 "
       id="polyline86" />
    <polyline
       style="fill-rule:evenodd"
       points="14309,7592 14309,6923 15096,6923 15096,7592 14309,7592 "
       id="polyline88" />
    <polyline
       style="fill-rule:evenodd"
       points="12734,6092 12734,5423 13521,5423 13521,6092 12734,6092 "
       id="polyline90" />
    <polyline
       style="fill-rule:evenodd"
       points="14309,6092 14309,5423 15096,5423 15096,6092 14309,6092 "
       id="polyline92" />
    <polyline
       style="fill-rule:evenodd"
       points="23045,7194 23714,7194 23714,7982 23045,7982 23045,7194 "
       id="polyline94" />
    <polyline
       style="fill-rule:evenodd"
       points="23045,8769 23714,8769 23714,9557 23045,9557 23045,8769 "
       id="polyline96" />
    <polyline
       style="fill-rule:evenodd"
       points="6080,5576 6750,5576 6750,6364 6080,6364 6080,5576 "
       id="polyline98" />
    <polyline
       style="fill-rule:evenodd"
       points="6080,7151 6750,7151 6750,7938 6080,7938 6080,7151 "
       id="polyline100" />
    <polyline
       style="fill-rule:evenodd"
       points="20234,2592 20234,1923 21021,1923 21021,2592 20234,2592 "
       id="polyline102" />
    <polyline
       style="fill-rule:evenodd"
       points="21809,2592 21809,1923 22596,1923 22596,2592 21809,2592 "
       id="polyline104" />
    <polyline
       style="fill-rule:evenodd"
       points="16815,6282 16815,5832 17015,5832 17015,6282 16815,6282 "
       id="polyline106" />
    <polyline
       style="fill-rule:evenodd"
       points="17315,6282 17315,5832 17515,5832 17515,6282 17315,6282 "
       id="polyline108" />
    <polyline
       style="fill-rule:evenodd"
       points="17815,6282 17815,5832 18015,5832 18015,6282 17815,6282 "
       id="polyline110" />
    <polyline
       style="fill-rule:evenodd"
       points="18315,6282 18315,5832 18515,5832 18515,6282 18315,6282 "
       id="polyline112" />
    <polyline
       style="fill-rule:evenodd"
       points="18815,6282 18815,5832 19015,5832 19015,6282 18815,6282 "
       id="polyline114" />
    <polyline
       style="fill-rule:evenodd"
       points="19315,6282 19315,5832 19515,5832 19515,6282 19315,6282 "
       id="polyline116" />
    <polyline
       style="fill-rule:evenodd"
       points="19815,6282 19815,5832 20015,5832 20015,6282 19815,6282 "
       id="polyline118" />
    <polyline
       style="fill-rule:evenodd"
       points="19815,3782 19815,3332 20015,3332 20015,3782 19815,3782 "
       id="polyline120" />
    <polyline
       style="fill-rule:evenodd"
       points="19315,3782 19315,3332 19515,3332 19515,3782 19315,3782 "
       id="polyline122" />
    <polyline
       style="fill-rule:evenodd"
       points="18315,3782 18315,3332 18515,3332 18515,3782 18315,3782 "
       id="polyline124" />
    <polyline
       style="fill-rule:evenodd"
       points="17815,3782 17815,3332 18015,3332 18015,3782 17815,3782 "
       id="polyline126" />
    <polyline
       style="fill-rule:evenodd"
       points="17315,3782 17315,3332 17515,3332 17515,3782 17315,3782 "
       id="polyline128" />
    <polyline
       style="fill-rule:evenodd"
       points="16815,3782 16815,3332 17015,3332 17015,3782 16815,3782 "
       id="polyline130" />
    <polyline
       style="fill-rule:evenodd"
       points="18815,3782 18815,3332 19015,3332 19015,3782 18815,3782 "
       id="polyline132" />
    <polyline
       style="fill-rule:evenodd"
       points="18793,8592 18793,8907 17257,8907 17257,8592 18793,8592 "
       id="polyline134" />
    <polyline
       style="fill-rule:evenodd"
       points="17257,8375 17257,8061 18793,8061 18793,8375 17257,8375 "
       id="polyline136" />
    <polyline
       style="fill-rule:evenodd"
       points="17257,7844 17257,7529 18793,7529 18793,7844 17257,7844 "
       id="polyline138" />
  </g>
  <g
     style="fill:#000000; fill-opacity:1.0;  stroke:#000000; stroke-width:157.48; stroke-opacity:1;  stroke-linecap:round; stroke-linejoin:round;"
     id="g142" />
  <g
     style="fill:#000000;fill-opacity:0;stroke:#000000;stroke-width:157.47999573;stroke-linecap:round;stroke-linejoin:round;stroke-opacity:1"
     id="g454"
     transform="translate(-810.31495,295.3148)">
    <path
       d="m 18025,8750 h -886"
       id="path144"
       inkscape:connector-curvature="0" />
    <path
       d="M 17415,6781 V 6057"
       id="path146"
       inkscape:connector-curvature="0" />
    <path
       d="m 17415,6781 -650,650"
       id="path148"
       inkscape:connector-curvature="0" />
    <path
       d="m 16765,7431 v 944"
       id="path150"
       inkscape:connector-curvature="0" />
    <path
       d="m 17139,8750 -374,-375"
       id="path152"
       inkscape:connector-curvature="0" />
    <path
       d="m 18025,8218 h 1732"
       id="path154"
       inkscape:connector-curvature="0" />
    <path
       d="m 20072,8375 h 5055"
       id="path156"
       inkscape:connector-curvature="0" />
    <path
       d="M 25127,8375 V 7757"
       id="path158"
       inkscape:connector-curvature="0" />
    <path
       d="m 19915,8375 h 157"
       id="path160"
       inkscape:connector-curvature="0" />
    <path
       d="m 19757,8218 158,157"
       id="path162"
       inkscape:connector-curvature="0" />
    <path
       d="m 14399,4757 h 630"
       id="path164"
       inkscape:connector-curvature="0" />
    <path
       d="m 13931,5226 468,-469"
       id="path166"
       inkscape:connector-curvature="0" />
    <path
       d="M 13931,8242 V 5226"
       id="path168"
       inkscape:connector-curvature="0" />
    <path
       d="m 13915,8257 16,-15"
       id="path170"
       inkscape:connector-curvature="0" />
    <path
       d="m 16229,3557 h 686"
       id="path172"
       inkscape:connector-curvature="0" />
    <path
       d="M 15029,4757 16229,3557"
       id="path174"
       inkscape:connector-curvature="0" />
    <path
       d="m 9415,7407 v 850"
       id="path176"
       inkscape:connector-curvature="0" />
    <path
       d="m 8773,8257 h 642"
       id="path178"
       inkscape:connector-curvature="0" />
    <path
       d="m 9415,8257 h 1500"
       id="path180"
       inkscape:connector-curvature="0" />
    <path
       d="m 8061,7545 712,712"
       id="path182"
       inkscape:connector-curvature="0" />
    <path
       d="M 8061,7545 H 6415"
       id="path184"
       inkscape:connector-curvature="0" />
    <path
       d="m 17525,8187 -31,31"
       id="path186"
       inkscape:connector-curvature="0" />
    <path
       d="m 2966,5895 h 925"
       id="path188"
       inkscape:connector-curvature="0" />
    <path
       d="M 3891,5895 5541,7545"
       id="path190"
       inkscape:connector-curvature="0" />
    <path
       d="m 5541,7545 h 874"
       id="path192"
       inkscape:connector-curvature="0" />
    <path
       d="m 20683,1466 190,-191"
       id="path194"
       inkscape:connector-curvature="0" />
    <path
       d="m 20627,1466 h 56"
       id="path196"
       inkscape:connector-curvature="0" />
    <path
       d="m 20873,1275 h 4855"
       id="path198"
       inkscape:connector-curvature="0" />
    <path
       d="m 25998,5757 59,-59"
       id="path200"
       inkscape:connector-curvature="0" />
    <path
       d="M 26057,5698 V 4753"
       id="path202"
       inkscape:connector-curvature="0" />
    <path
       d="m 26057,4753 h 1732"
       id="path204"
       inkscape:connector-curvature="0" />
    <path
       d="M 27789,4753 V 3336"
       id="path206"
       inkscape:connector-curvature="0" />
    <path
       d="M 27789,3336 25728,1275"
       id="path208"
       inkscape:connector-curvature="0" />
    <path
       d="m 25998,5757 h -934"
       id="path210"
       inkscape:connector-curvature="0" />
    <path
       d="M 25064,5757 V 7694"
       id="path212"
       inkscape:connector-curvature="0" />
    <path
       d="m 25064,7694 63,63"
       id="path214"
       inkscape:connector-curvature="0" />
    <path
       d="M 20627,2257 V 1466"
       id="path216"
       inkscape:connector-curvature="0" />
    <path
       d="m 20627,1466 -208,-209"
       id="path218"
       inkscape:connector-curvature="0" />
    <path
       d="m 16923,2706 h 2047"
       id="path220"
       inkscape:connector-curvature="0" />
    <path
       d="M 18970,2706 20419,1257"
       id="path222"
       inkscape:connector-curvature="0" />
    <path
       d="M 16923,3550 V 2706"
       id="path224"
       inkscape:connector-curvature="0" />
    <path
       d="m 16923,3550 -8,7"
       id="path226"
       inkscape:connector-curvature="0" />
    <path
       d="m 10915,7407 v 850"
       id="path228"
       inkscape:connector-curvature="0" />
    <path
       d="m 10915,8257 h 3000"
       id="path230"
       inkscape:connector-curvature="0" />
    <path
       d="m 16923,3550 -8,7"
       id="path232"
       inkscape:connector-curvature="0" />
    <path
       d="M 18025,7687 V 6958"
       id="path234"
       inkscape:connector-curvature="0" />
    <path
       d="M 17915,6848 V 6057"
       id="path236"
       inkscape:connector-curvature="0" />
    <path
       d="m 18025,6958 -110,-110"
       id="path238"
       inkscape:connector-curvature="0" />
    <path
       d="m 16293,8533 630,630"
       id="path240"
       inkscape:connector-curvature="0" />
    <path
       d="m 16923,9163 h 2204"
       id="path242"
       inkscape:connector-curvature="0" />
    <path
       d="m 19127,9163 h 4252"
       id="path244"
       inkscape:connector-curvature="0" />
    <path
       d="m 23379,9163 h 2520"
       id="path246"
       inkscape:connector-curvature="0" />
    <path
       d="m 25899,9163 803,-803"
       id="path248"
       inkscape:connector-curvature="0" />
    <path
       d="M 26702,8360 V 7757"
       id="path250"
       inkscape:connector-curvature="0" />
    <path
       d="m 2966,4872 h 925"
       id="path252"
       inkscape:connector-curvature="0" />
    <path
       d="m 5793,2970 h 622"
       id="path254"
       inkscape:connector-curvature="0" />
    <path
       d="M 3891,4872 5793,2970"
       id="path256"
       inkscape:connector-curvature="0" />
    <path
       d="m 16915,6057 v 752"
       id="path258"
       inkscape:connector-curvature="0" />
    <path
       d="m 16915,6809 -622,622"
       id="path260"
       inkscape:connector-curvature="0" />
    <path
       d="M 16293,7431 V 8533"
       id="path262"
       inkscape:connector-curvature="0" />
    <path
       d="M 26915,5545 V 7545"
       id="path264"
       inkscape:connector-curvature="0" />
    <path
       d="m 26915,7545 -213,212"
       id="path266"
       inkscape:connector-curvature="0" />
    <path
       d="m 18340,2234 h 315"
       id="path268"
       inkscape:connector-curvature="0" />
    <path
       d="m 9049,3021 h 6614"
       id="path270"
       inkscape:connector-curvature="0" />
    <path
       d="m 15663,3021 787,-787"
       id="path272"
       inkscape:connector-curvature="0" />
    <path
       d="m 16450,2234 h 1890"
       id="path274"
       inkscape:connector-curvature="0" />
    <path
       d="m 8576,3494 473,-473"
       id="path276"
       inkscape:connector-curvature="0" />
    <path
       d="M 28100,5545 H 26915"
       id="path278"
       inkscape:connector-curvature="0" />
    <path
       d="m 28261,5383 -161,162"
       id="path280"
       inkscape:connector-curvature="0" />
    <path
       d="M 28261,3021 V 5383"
       id="path282"
       inkscape:connector-curvature="0" />
    <path
       d="m 26057,816 2204,2205"
       id="path284"
       inkscape:connector-curvature="0" />
    <path
       d="m 20072,816 h 5985"
       id="path286"
       inkscape:connector-curvature="0" />
    <path
       d="M 18655,2234 20072,816"
       id="path288"
       inkscape:connector-curvature="0" />
    <path
       d="M 6415,2970 H 8053"
       id="path290"
       inkscape:connector-curvature="0" />
    <path
       d="m 8576,3494 v 712"
       id="path292"
       inkscape:connector-curvature="0" />
    <path
       d="m 8053,2970 523,524"
       id="path294"
       inkscape:connector-curvature="0" />
    <path
       d="m 8576,4206 51,51"
       id="path296"
       inkscape:connector-curvature="0" />
    <path
       d="m 11789,6108 350,-351"
       id="path298"
       inkscape:connector-curvature="0" />
    <path
       d="m 10915,6108 h 874"
       id="path300"
       inkscape:connector-curvature="0" />
    <path
       d="m 10190,5383 725,725"
       id="path302"
       inkscape:connector-curvature="0" />
    <path
       d="m 8261,5383 h 1929"
       id="path304"
       inkscape:connector-curvature="0" />
    <path
       d="m 7631,4753 630,630"
       id="path306"
       inkscape:connector-curvature="0" />
    <path
       d="m 7631,4124 v 629"
       id="path308"
       inkscape:connector-curvature="0" />
    <path
       d="m 7316,3809 315,315"
       id="path310"
       inkscape:connector-curvature="0" />
    <path
       d="M 4108,5127 5427,3809"
       id="path312"
       inkscape:connector-curvature="0" />
    <path
       d="M 5427,3809 H 7316"
       id="path314"
       inkscape:connector-curvature="0" />
    <path
       d="M 4108,5127 H 2966"
       id="path316"
       inkscape:connector-curvature="0" />
    <path
       d="m 12139,5757 h 988"
       id="path318"
       inkscape:connector-curvature="0" />
    <path
       d="M 13202,4257 V 5683"
       id="path320"
       inkscape:connector-curvature="0" />
    <path
       d="m 13202,5683 -75,74"
       id="path322"
       inkscape:connector-curvature="0" />
    <path
       d="m 13202,5683 -75,74"
       id="path324"
       inkscape:connector-curvature="0" />
    <path
       d="m 7631,6801 693,-693"
       id="path326"
       inkscape:connector-curvature="0" />
    <path
       d="M 8324,6108 H 9415"
       id="path328"
       inkscape:connector-curvature="0" />
    <path
       d="M 2966,5383 H 4167"
       id="path330"
       inkscape:connector-curvature="0" />
    <path
       d="M 5584,6801 H 7631"
       id="path332"
       inkscape:connector-curvature="0" />
    <path
       d="M 4167,5383 5584,6801"
       id="path334"
       inkscape:connector-curvature="0" />
    <path
       d="m 9415,6108 v 642"
       id="path336"
       inkscape:connector-curvature="0" />
    <path
       d="m 12183,7257 h 944"
       id="path338"
       inkscape:connector-curvature="0" />
    <path
       d="m 11726,6801 457,456"
       id="path340"
       inkscape:connector-curvature="0" />
    <path
       d="m 9466,6801 h 2260"
       id="path342"
       inkscape:connector-curvature="0" />
    <path
       d="m 9415,6750 51,51"
       id="path344"
       inkscape:connector-curvature="0" />
    <path
       d="m 22202,2257 h 1425"
       id="path346"
       inkscape:connector-curvature="0" />
    <path
       d="M 24009,4281 V 3494"
       id="path348"
       inkscape:connector-curvature="0" />
    <path
       d="m 24009,3494 473,-473"
       id="path350"
       inkscape:connector-curvature="0" />
    <path
       d="m 24482,3021 h 630"
       id="path352"
       inkscape:connector-curvature="0" />
    <path
       d="m 22915,4757 h 618"
       id="path354"
       inkscape:connector-curvature="0" />
    <path
       d="M 25202,2931 V 2257"
       id="path356"
       inkscape:connector-curvature="0" />
    <path
       d="m 25112,3021 90,-90"
       id="path358"
       inkscape:connector-curvature="0" />
    <path
       d="m 23533,4757 476,-476"
       id="path360"
       inkscape:connector-curvature="0" />
    <path
       d="m 19415,3557 v 297"
       id="path362"
       inkscape:connector-curvature="0" />
    <path
       d="m 20319,4757 h 2596"
       id="path364"
       inkscape:connector-curvature="0" />
    <path
       d="m 19415,3854 904,903"
       id="path366"
       inkscape:connector-curvature="0" />
    <path
       d="M 6415,4545 V 5970"
       id="path368"
       inkscape:connector-curvature="0" />
    <path
       d="m 19915,3557 v 252"
       id="path370"
       inkscape:connector-curvature="0" />
    <path
       d="m 22013,3757 h 902"
       id="path372"
       inkscape:connector-curvature="0" />
    <path
       d="m 21647,4124 366,-367"
       id="path374"
       inkscape:connector-curvature="0" />
    <path
       d="m 20230,4124 h 1417"
       id="path376"
       inkscape:connector-curvature="0" />
    <path
       d="m 19915,3809 315,315"
       id="path378"
       inkscape:connector-curvature="0" />
    <path
       d="m 18915,3557 v 354"
       id="path380"
       inkscape:connector-curvature="0" />
    <path
       d="m 20671,5226 744,744"
       id="path382"
       inkscape:connector-curvature="0" />
    <path
       d="m 20230,5226 h 441"
       id="path384"
       inkscape:connector-curvature="0" />
    <path
       d="m 18915,3911 1315,1315"
       id="path386"
       inkscape:connector-curvature="0" />
    <path
       d="M 22915,5757 H 21627"
       id="path388"
       inkscape:connector-curvature="0" />
    <path
       d="m 21627,5757 -212,213"
       id="path390"
       inkscape:connector-curvature="0" />
    <path
       d="m 25064,3757 h 1638"
       id="path392"
       inkscape:connector-curvature="0" />
    <path
       d="m 26702,3757 213,213"
       id="path394"
       inkscape:connector-curvature="0" />
    <path
       d="M 23809,6757 V 5364"
       id="path396"
       inkscape:connector-curvature="0" />
    <path
       d="M 23809,6757 H 20344"
       id="path398"
       inkscape:connector-curvature="0" />
    <path
       d="m 19915,6057 v 271"
       id="path400"
       inkscape:connector-curvature="0" />
    <path
       d="m 19915,6328 429,429"
       id="path402"
       inkscape:connector-curvature="0" />
    <path
       d="m 23809,5364 43,-44"
       id="path404"
       inkscape:connector-curvature="0" />
    <path
       d="m 23852,5320 v 0"
       id="path406"
       inkscape:connector-curvature="0" />
    <path
       d="m 23852,5320 563,-563"
       id="path408"
       inkscape:connector-curvature="0" />
    <path
       d="m 24415,4757 h 649"
       id="path410"
       inkscape:connector-curvature="0" />
    <path
       d="m 21415,7545 h 1921"
       id="path412"
       inkscape:connector-curvature="0" />
    <path
       d="m 23336,7545 43,43"
       id="path414"
       inkscape:connector-curvature="0" />
    <path
       d="m 18415,6057 v 346"
       id="path416"
       inkscape:connector-curvature="0" />
    <path
       d="m 18415,6403 555,555"
       id="path418"
       inkscape:connector-curvature="0" />
    <path
       d="m 18970,6958 h 630"
       id="path420"
       inkscape:connector-curvature="0" />
    <path
       d="m 19600,6958 587,587"
       id="path422"
       inkscape:connector-curvature="0" />
    <path
       d="m 20187,7545 h 1228"
       id="path424"
       inkscape:connector-curvature="0" />
    <path
       d="m 10202,4257 h 1425"
       id="path426"
       inkscape:connector-curvature="0" />
    <path
       d="m 14702,7257 h 945"
       id="path428"
       inkscape:connector-curvature="0" />
    <path
       d="m 18915,5486 v 571"
       id="path430"
       inkscape:connector-curvature="0" />
    <path
       d="m 18812,5383 103,103"
       id="path432"
       inkscape:connector-curvature="0" />
    <path
       d="m 16608,5383 h 2204"
       id="path434"
       inkscape:connector-curvature="0" />
    <path
       d="m 15820,6171 788,-788"
       id="path436"
       inkscape:connector-curvature="0" />
    <path
       d="M 15820,7084 V 6171"
       id="path438"
       inkscape:connector-curvature="0" />
    <path
       d="m 15647,7257 173,-173"
       id="path440"
       inkscape:connector-curvature="0" />
    <path
       d="m 18915,6057 h 500"
       id="path442"
       inkscape:connector-curvature="0" />
    <path
       d="m 14702,5757 h 587"
       id="path444"
       inkscape:connector-curvature="0" />
    <path
       d="M 17415,4261 V 3557"
       id="path446"
       inkscape:connector-curvature="0" />
    <path
       d="m 17395,4281 20,-20"
       id="path448"
       inkscape:connector-curvature="0" />
    <path
       d="m 16765,4281 h 630"
       id="path450"
       inkscape:connector-curvature="0" />
    <path
       d="M 15289,5757 16765,4281"
       id="path452"
       inkscape:connector-curvature="0" />
  </g>
  <g
     style="fill:#000000;fill-opacity:0;stroke:#000000;stroke-width:98.42520142;stroke-linecap:round;stroke-linejoin:round;stroke-opacity:1"
     id="g458"
     transform="translate(-810.31495,295.3148)">
    <path
       d="m 14702,5757 h 213"
       id="path456"
       inkscape:connector-curvature="0" />
  </g>
  <g
     style="fill:#FFFFFF; fill-opacity:0.0;  stroke:#FFFFFF; stroke-width:98.4252; stroke-opacity:1;  stroke-linecap:round; stroke-linejoin:round;"
     id="g460" />
  <g
     style="fill:#000000; fill-opacity:0.0;  stroke:#000000; stroke-width:98.4252; stroke-opacity:1;  stroke-linecap:round; stroke-linejoin:round;"
     id="g462" />
  <rect
     style="opacity:1;fill:none;fill-opacity:1;stroke:#000000;stroke-width:157.93510437;stroke-miterlimit:4;stroke-dasharray:none;stroke-opacity:1"
     id="rect1283"
     width="28175.396"
     height="10050.397"
     x="78.967552"
     y="480.63318" />
  <circle
     style="opacity:1;fill:#000000;fill-opacity:1;stroke:#000000;stroke-width:156.24998474;stroke-miterlimit:4;stroke-dasharray:none;stroke-opacity:1"
     id="path1285"
     cx="1048.7963"
     cy="1327.037"
     r="312.40738" />
  <circle
     r="312.40738"
     cy="9660.3701"
     cx="1048.7963"
     id="circle1287"
     style="opacity:1;fill:#000000;fill-opacity:1;stroke:#000000;stroke-width:156.24998474;stroke-miterlimit:4;stroke-dasharray:none;stroke-opacity:1" />
  <circle
     r="312.40738"
     cy="1327.037"
     cx="27298.807"
     id="circle1289"
     style="opacity:1;fill:#000000;fill-opacity:1;stroke:#000000;stroke-width:156.24998474;stroke-miterlimit:4;stroke-dasharray:none;stroke-opacity:1" />
  <circle
     style="opacity:1;fill:#000000;fill-opacity:1;stroke:#000000;stroke-width:156.24998474;stroke-miterlimit:4;stroke-dasharray:none;stroke-opacity:1"
     id="circle1291"
     cx="27298.807"
     cy="9660.3701"
     r="312.40738" />
  <g
     inkscape:groupmode="layer"
     id="layer1"
     inkscape:label="CUTSMICRO"
     style="display:none">
    <rect
       style="opacity:1;fill:#000000;fill-opacity:1;stroke:#000000;stroke-width:0;stroke-miterlimit:4;stroke-dasharray:none;stroke-opacity:1"
       id="rect1295"
       width="1372.3611"
       height="104.16666"
       x="1889.6851"
       y="5240.2085" />
    <rect
       y="5496.3545"
       x="1889.6851"
       height="104.16666"
       width="1372.3611"
       id="rect1297"
       style="opacity:1;fill:#000000;fill-opacity:1;stroke:#000000;stroke-width:0;stroke-miterlimit:4;stroke-dasharray:none;stroke-opacity:1" />
    <rect
       style="opacity:1;fill:#000000;fill-opacity:1;stroke:#000000;stroke-width:0;stroke-miterlimit:4;stroke-dasharray:none;stroke-opacity:1"
       id="rect1299"
       width="1372.3611"
       height="104.16666"
       x="1889.6851"
       y="5756.771" />
    <rect
       y="6011.0415"
       x="1889.6874"
       height="104.16666"
       width="1372.3611"
       id="rect1301"
       style="opacity:1;fill:#000000;fill-opacity:1;stroke:#000000;stroke-width:0;stroke-miterlimit:4;stroke-dasharray:none;stroke-opacity:1" />
  </g>
</svg>
