<?xml version="1.0" encoding="UTF-8" standalone="no"?>
<svg
   xmlns:dc="http://purl.org/dc/elements/1.1/"
   xmlns:cc="http://creativecommons.org/ns#"
   xmlns:rdf="http://www.w3.org/1999/02/22-rdf-syntax-ns#"
   xmlns:svg="http://www.w3.org/2000/svg"
   xmlns="http://www.w3.org/2000/svg"
   xmlns:sodipodi="http://sodipodi.sourceforge.net/DTD/sodipodi-0.dtd"
   xmlns:inkscape="http://www.inkscape.org/namespaces/inkscape"
   version="1.1"
   width="7.70128cm"
   height="2.7178cm"
   viewBox="0 0 30320 10700 "
   id="svg474"
   sodipodi:docname="FabISPMini-brd.svg"
   inkscape:version="0.92.2 5c3e80d, 2017-08-06">
  <metadata
     id="metadata480">
    <rdf:RDF>
      <cc:Work
         rdf:about="">
        <dc:format>image/svg+xml</dc:format>
        <dc:type
           rdf:resource="http://purl.org/dc/dcmitype/StillImage" />
      </cc:Work>
    </rdf:RDF>
  </metadata>
  <defs
     id="defs478" />
  <sodipodi:namedview
     pagecolor="#ffffff"
     bordercolor="#666666"
     borderopacity="1"
     objecttolerance="10"
     gridtolerance="10"
     guidetolerance="10"
     inkscape:pageopacity="0"
     inkscape:pageshadow="2"
     inkscape:window-width="1284"
     inkscape:window-height="761"
     id="namedview476"
     showgrid="false"
     inkscape:zoom="2.2262533"
     inkscape:cx="151.84358"
     inkscape:cy="49.367695"
     inkscape:window-x="0"
     inkscape:window-y="0"
     inkscape:window-maximized="0"
     inkscape:current-layer="svg474" />
  <title
     id="title2">SVG Picture created as FabISPMini-brd.svg date 2018/02/21 08:25:03 </title>
  <desc
     id="desc4">Picture generated by PCBNEW </desc>
  <g
     style="fill:#000000; fill-opacity:1;stroke:#000000; stroke-opacity:1; stroke-linecap:round; stroke-linejoin:round; "
     transform="translate(0 0) scale(1 1)"
     id="g6" />
  <g
     style="fill:#000000; fill-opacity:0.0;  stroke:#000000; stroke-width:-0.000393701; stroke-opacity:1;  stroke-linecap:round; stroke-linejoin:round;"
     id="g8" />
  <g
     style="fill:#FFFFFF; fill-opacity:0.0;  stroke:#FFFFFF; stroke-width:-0.000393701; stroke-opacity:1;  stroke-linecap:round; stroke-linejoin:round;"
     id="g10" />
  <g
     style="fill:#000000; fill-opacity:0.0;  stroke:#000000; stroke-width:-0.000393701; stroke-opacity:1;  stroke-linecap:round; stroke-linejoin:round;"
     id="g12" />
  <g
     style="fill:#000000; fill-opacity:0.0;  stroke:#000000; stroke-width:0; stroke-opacity:1;  stroke-linecap:round; stroke-linejoin:round;"
     id="g14" />
  <g
     style="fill:#000000;fill-opacity:1;stroke:#000000;stroke-width:0;stroke-linecap:round;stroke-linejoin:round;stroke-opacity:1"
     id="g136"
     transform="translate(-389.77625,155.82619)">
    <polyline
       style="fill-rule:evenodd"
       points="28177,7610 28177,8240 27390,8240 27390,7610 28177,7610 "
       id="polyline16" />
    <polyline
       style="fill-rule:evenodd"
       points="26602,7610 26602,8240 25815,8240 25815,7610 26602,7610 "
       id="polyline18" />
    <polyline
       style="fill-rule:evenodd"
       points="11760,6098 12232,6098 12232,6452 11760,6452 11760,6098 "
       id="polyline20" />
    <polyline
       style="fill-rule:evenodd"
       points="11760,7397 12232,7397 12232,7751 11760,7751 11760,7397 "
       id="polyline22" />
    <polyline
       style="fill-rule:evenodd"
       points="10260,6098 10732,6098 10732,6452 10260,6452 10260,6098 "
       id="polyline24" />
    <polyline
       style="fill-rule:evenodd"
       points="10260,7397 10732,7397 10732,7751 10260,7751 10260,7397 "
       id="polyline26" />
    <polyline
       style="fill-rule:evenodd"
       points="24315,2759 24315,2090 25102,2090 25102,2759 24315,2759 "
       id="polyline28" />
    <polyline
       style="fill-rule:evenodd"
       points="25890,2759 25890,2090 26677,2090 26677,2759 25890,2759 "
       id="polyline30" />
    <polyline
       style="fill-rule:evenodd"
       points="7831,5106 7162,5106 7162,4318 7831,4318 7831,5106 "
       id="polyline32" />
    <polyline
       style="fill-rule:evenodd"
       points="7831,3531 7162,3531 7162,2744 7831,2744 7831,3531 "
       id="polyline34" />
    <polyline
       style="fill-rule:evenodd"
       points="23496,4175 23496,3675 24496,3675 24496,4175 23496,4175 "
       id="polyline36" />
    <polyline
       style="fill-rule:evenodd"
       points="23496,5175 23496,4675 24496,4675 24496,5175 23496,5175 "
       id="polyline38" />
    <polyline
       style="fill-rule:evenodd"
       points="23496,6175 23496,5675 24496,5675 24496,6175 23496,6175 "
       id="polyline40" />
    <polyline
       style="fill-rule:evenodd"
       points="25646,4175 25646,3675 26646,3675 26646,4175 25646,4175 "
       id="polyline42" />
    <polyline
       style="fill-rule:evenodd"
       points="25646,5175 25646,4675 26646,4675 26646,5175 25646,5175 "
       id="polyline44" />
    <polyline
       style="fill-rule:evenodd"
       points="25646,6175 25646,5675 26646,5675 26646,6175 25646,6175 "
       id="polyline46" />
    <polyline
       style="fill-rule:evenodd"
       points="22831,8106 22162,8106 22162,7318 22831,7318 22831,8106 "
       id="polyline48" />
    <polyline
       style="fill-rule:evenodd"
       points="22831,6531 22162,6531 22162,5744 22831,5744 22831,6531 "
       id="polyline50" />
    <polyline
       style="fill-rule:evenodd"
       points="27662,3744 28331,3744 28331,4531 27662,4531 27662,3744 "
       id="polyline52" />
    <polyline
       style="fill-rule:evenodd"
       points="27662,5318 28331,5318 28331,6106 27662,6106 27662,5318 "
       id="polyline54" />
    <polyline
       style="fill-rule:evenodd"
       points="9315,4759 9315,4090 10102,4090 10102,4759 9315,4759 "
       id="polyline56" />
    <polyline
       style="fill-rule:evenodd"
       points="10890,4759 10890,4090 11677,4090 11677,4759 10890,4759 "
       id="polyline58" />
    <polyline
       style="fill-rule:evenodd"
       points="12315,4759 12315,4090 13102,4090 13102,4759 12315,4759 "
       id="polyline60" />
    <polyline
       style="fill-rule:evenodd"
       points="13890,4759 13890,4090 14677,4090 14677,4759 13890,4759 "
       id="polyline62" />
    <polyline
       style="fill-rule:evenodd"
       points="13815,7759 13815,7090 14602,7090 14602,7759 13815,7759 "
       id="polyline64" />
    <polyline
       style="fill-rule:evenodd"
       points="15390,7759 15390,7090 16177,7090 16177,7759 15390,7759 "
       id="polyline66" />
    <polyline
       style="fill-rule:evenodd"
       points="13815,6259 13815,5590 14602,5590 14602,6259 13815,6259 "
       id="polyline68" />
    <polyline
       style="fill-rule:evenodd"
       points="15390,6259 15390,5590 16177,5590 16177,6259 15390,6259 "
       id="polyline70" />
    <polyline
       style="fill-rule:evenodd"
       points="24126,7362 24795,7362 24795,8149 24126,8149 24126,7362 "
       id="polyline72" />
    <polyline
       style="fill-rule:evenodd"
       points="24126,8937 24795,8937 24795,9724 24126,9724 24126,8937 "
       id="polyline74" />
    <polyline
       style="fill-rule:evenodd"
       points="7162,5744 7831,5744 7831,6531 7162,6531 7162,5744 "
       id="polyline76" />
    <polyline
       style="fill-rule:evenodd"
       points="7162,7318 7831,7318 7831,8106 7162,8106 7162,7318 "
       id="polyline78" />
    <polyline
       style="fill-rule:evenodd"
       points="21315,2759 21315,2090 22102,2090 22102,2759 21315,2759 "
       id="polyline80" />
    <polyline
       style="fill-rule:evenodd"
       points="22890,2759 22890,2090 23677,2090 23677,2759 22890,2759 "
       id="polyline82" />
    <polyline
       style="fill-rule:evenodd"
       points="17896,6450 17896,6000 18096,6000 18096,6450 17896,6450 "
       id="polyline84" />
    <polyline
       style="fill-rule:evenodd"
       points="18396,6450 18396,6000 18596,6000 18596,6450 18396,6450 "
       id="polyline86" />
    <polyline
       style="fill-rule:evenodd"
       points="18896,6450 18896,6000 19096,6000 19096,6450 18896,6450 "
       id="polyline88" />
    <polyline
       style="fill-rule:evenodd"
       points="19396,6450 19396,6000 19596,6000 19596,6450 19396,6450 "
       id="polyline90" />
    <polyline
       style="fill-rule:evenodd"
       points="19896,6450 19896,6000 20096,6000 20096,6450 19896,6450 "
       id="polyline92" />
    <polyline
       style="fill-rule:evenodd"
       points="20396,6450 20396,6000 20596,6000 20596,6450 20396,6450 "
       id="polyline94" />
    <polyline
       style="fill-rule:evenodd"
       points="20896,6450 20896,6000 21096,6000 21096,6450 20896,6450 "
       id="polyline96" />
    <polyline
       style="fill-rule:evenodd"
       points="20896,3950 20896,3500 21096,3500 21096,3950 20896,3950 "
       id="polyline98" />
    <polyline
       style="fill-rule:evenodd"
       points="20396,3950 20396,3500 20596,3500 20596,3950 20396,3950 "
       id="polyline100" />
    <polyline
       style="fill-rule:evenodd"
       points="19396,3950 19396,3500 19596,3500 19596,3950 19396,3950 "
       id="polyline102" />
    <polyline
       style="fill-rule:evenodd"
       points="18896,3950 18896,3500 19096,3500 19096,3950 18896,3950 "
       id="polyline104" />
    <polyline
       style="fill-rule:evenodd"
       points="18396,3950 18396,3500 18596,3500 18596,3950 18396,3950 "
       id="polyline106" />
    <polyline
       style="fill-rule:evenodd"
       points="17896,3950 17896,3500 18096,3500 18096,3950 17896,3950 "
       id="polyline108" />
    <polyline
       style="fill-rule:evenodd"
       points="19896,3950 19896,3500 20096,3500 20096,3950 19896,3950 "
       id="polyline110" />
    <polyline
       style="fill-rule:evenodd"
       points="19874,8759 19874,9074 18339,9074 18339,8759 19874,8759 "
       id="polyline112" />
    <polyline
       style="fill-rule:evenodd"
       points="18339,8543 18339,8228 19874,8228 19874,8543 18339,8543 "
       id="polyline114" />
    <polyline
       style="fill-rule:evenodd"
       points="18339,8011 18339,7696 19874,7696 19874,8011 18339,8011 "
       id="polyline116" />
    <polyline
       style="fill-rule:evenodd"
       points="2933,5305 2933,5167 3917,5167 3917,5305 2933,5305 "
       id="polyline118" />
    <polyline
       style="fill-rule:evenodd"
       points="2933,4990 2933,4852 3917,4852 3917,4990 2933,4990 "
       id="polyline120" />
    <polyline
       style="fill-rule:evenodd"
       points="2933,5935 2933,5797 3917,5797 3917,5935 2933,5935 "
       id="polyline122" />
    <polyline
       style="fill-rule:evenodd"
       points="2933,5620 2933,5482 3917,5482 3917,5620 2933,5620 "
       id="polyline124" />
    <polyline
       style="fill-rule:evenodd"
       points="768,7401 768,6614 1752,6614 1752,7401 768,7401 "
       id="polyline126" />
    <polyline
       style="fill-rule:evenodd"
       points="768,3858 768,3070 1752,3070 1752,3858 768,3858 "
       id="polyline128" />
    <polyline
       style="fill-rule:evenodd"
       points="2933,7401 2933,6614 3917,6614 3917,7401 2933,7401 "
       id="polyline130" />
    <polyline
       style="fill-rule:evenodd"
       points="2933,3858 2933,3070 3917,3070 3917,3858 2933,3858 "
       id="polyline132" />
    <polyline
       style="fill-rule:evenodd"
       points="2933,4675 2933,4537 3917,4537 3917,4675 2933,4675 "
       id="polyline134" />
  </g>
  <g
     style="fill:#000000; fill-opacity:1.0;  stroke:#000000; stroke-width:157.48; stroke-opacity:1;  stroke-linecap:round; stroke-linejoin:round;"
     id="g138" />
  <g
     style="fill:#000000;fill-opacity:0;stroke:#000000;stroke-width:157.47999573;stroke-linecap:round;stroke-linejoin:round;stroke-opacity:1"
     id="g458"
     transform="translate(-389.77625,155.82619)">
    <path
       d="m 3043,5866 h 788"
       id="path140"
       inkscape:connector-curvature="0" />
    <path
       d="m 3043,4606 h 788"
       id="path142"
       inkscape:connector-curvature="0" />
    <path
       d="M 19106,8917 H 18063"
       id="path144"
       inkscape:connector-curvature="0" />
    <path
       d="M 18496,6948 V 6225"
       id="path146"
       inkscape:connector-curvature="0" />
    <path
       d="m 18496,6948 -649,650"
       id="path148"
       inkscape:connector-curvature="0" />
    <path
       d="m 17847,7598 v 945"
       id="path150"
       inkscape:connector-curvature="0" />
    <path
       d="M 17847,8700 V 8543"
       id="path152"
       inkscape:connector-curvature="0" />
    <path
       d="m 18063,8917 -216,-217"
       id="path154"
       inkscape:connector-curvature="0" />
    <path
       d="M 7496,7712 H 6150"
       id="path156"
       inkscape:connector-curvature="0" />
    <path
       d="M 4303,5866 H 3673"
       id="path158"
       inkscape:connector-curvature="0" />
    <path
       d="M 6150,7712 4303,5866"
       id="path160"
       inkscape:connector-curvature="0" />
    <path
       d="m 21154,8700 h 4279"
       id="path162"
       inkscape:connector-curvature="0" />
    <path
       d="m 19106,8385 h 1733"
       id="path164"
       inkscape:connector-curvature="0" />
    <path
       d="m 20839,8385 315,315"
       id="path166"
       inkscape:connector-curvature="0" />
    <path
       d="m 25433,8700 776,-775"
       id="path168"
       inkscape:connector-curvature="0" />
    <path
       d="m 15480,4925 h 630"
       id="path170"
       inkscape:connector-curvature="0" />
    <path
       d="m 15012,5393 468,-468"
       id="path172"
       inkscape:connector-curvature="0" />
    <path
       d="M 15012,8409 V 5393"
       id="path174"
       inkscape:connector-curvature="0" />
    <path
       d="m 14996,8425 16,-16"
       id="path176"
       inkscape:connector-curvature="0" />
    <path
       d="m 17310,3725 h 686"
       id="path178"
       inkscape:connector-curvature="0" />
    <path
       d="M 16110,4925 17310,3725"
       id="path180"
       inkscape:connector-curvature="0" />
    <path
       d="m 10496,7574 v 851"
       id="path182"
       inkscape:connector-curvature="0" />
    <path
       d="m 9854,8425 h 642"
       id="path184"
       inkscape:connector-curvature="0" />
    <path
       d="m 10496,8425 h 1500"
       id="path186"
       inkscape:connector-curvature="0" />
    <path
       d="m 9142,7712 712,713"
       id="path188"
       inkscape:connector-curvature="0" />
    <path
       d="M 9142,7712 H 7496"
       id="path190"
       inkscape:connector-curvature="0" />
    <path
       d="m 18606,8354 -31,31"
       id="path192"
       inkscape:connector-curvature="0" />
    <path
       d="m 21764,1633 191,-190"
       id="path194"
       inkscape:connector-curvature="0" />
    <path
       d="m 21709,1633 h 55"
       id="path196"
       inkscape:connector-curvature="0" />
    <path
       d="m 21955,1443 h 4854"
       id="path198"
       inkscape:connector-curvature="0" />
    <path
       d="m 27079,5925 59,-59"
       id="path200"
       inkscape:connector-curvature="0" />
    <path
       d="M 27138,5866 V 4921"
       id="path202"
       inkscape:connector-curvature="0" />
    <path
       d="m 27138,4921 h 1732"
       id="path204"
       inkscape:connector-curvature="0" />
    <path
       d="M 28870,4921 V 3503"
       id="path206"
       inkscape:connector-curvature="0" />
    <path
       d="M 28870,3503 26809,1443"
       id="path208"
       inkscape:connector-curvature="0" />
    <path
       d="m 27079,5925 h -933"
       id="path210"
       inkscape:connector-curvature="0" />
    <path
       d="M 26146,5925 V 7862"
       id="path212"
       inkscape:connector-curvature="0" />
    <path
       d="m 26146,7862 63,63"
       id="path214"
       inkscape:connector-curvature="0" />
    <path
       d="M 21709,2425 V 1633"
       id="path216"
       inkscape:connector-curvature="0" />
    <path
       d="m 21709,1633 -209,-208"
       id="path218"
       inkscape:connector-curvature="0" />
    <path
       d="m 18004,2874 h 2047"
       id="path220"
       inkscape:connector-curvature="0" />
    <path
       d="M 20051,2874 21500,1425"
       id="path222"
       inkscape:connector-curvature="0" />
    <path
       d="M 18004,3717 V 2874"
       id="path224"
       inkscape:connector-curvature="0" />
    <path
       d="m 18004,3717 -8,8"
       id="path226"
       inkscape:connector-curvature="0" />
    <path
       d="m 11996,7574 v 851"
       id="path228"
       inkscape:connector-curvature="0" />
    <path
       d="m 11996,8425 h 3000"
       id="path230"
       inkscape:connector-curvature="0" />
    <path
       d="m 18004,3717 -8,8"
       id="path232"
       inkscape:connector-curvature="0" />
    <path
       d="m 18996,6225 v 696"
       id="path234"
       inkscape:connector-curvature="0" />
    <path
       d="m 19106,7031 v 823"
       id="path236"
       inkscape:connector-curvature="0" />
    <path
       d="m 18996,6921 110,110"
       id="path238"
       inkscape:connector-curvature="0" />
    <path
       d="M 7496,3137 H 5929"
       id="path240"
       inkscape:connector-curvature="0" />
    <path
       d="M 4461,4606 H 3673"
       id="path242"
       inkscape:connector-curvature="0" />
    <path
       d="M 5929,3137 4461,4606"
       id="path244"
       inkscape:connector-curvature="0" />
    <path
       d="m 17374,8700 630,630"
       id="path246"
       inkscape:connector-curvature="0" />
    <path
       d="m 18004,9330 h 2205"
       id="path248"
       inkscape:connector-curvature="0" />
    <path
       d="m 20209,9330 h 4252"
       id="path250"
       inkscape:connector-curvature="0" />
    <path
       d="m 24461,9330 h 2519"
       id="path252"
       inkscape:connector-curvature="0" />
    <path
       d="m 26980,9330 804,-803"
       id="path254"
       inkscape:connector-curvature="0" />
    <path
       d="M 27784,8527 V 7925"
       id="path256"
       inkscape:connector-curvature="0" />
    <path
       d="m 17996,6225 v 751"
       id="path258"
       inkscape:connector-curvature="0" />
    <path
       d="m 17996,6976 -622,622"
       id="path260"
       inkscape:connector-curvature="0" />
    <path
       d="M 17374,7598 V 8700"
       id="path262"
       inkscape:connector-curvature="0" />
    <path
       d="M 27996,5712 V 7712"
       id="path264"
       inkscape:connector-curvature="0" />
    <path
       d="m 27996,7712 -212,213"
       id="path266"
       inkscape:connector-curvature="0" />
    <path
       d="m 19421,2401 h 315"
       id="path268"
       inkscape:connector-curvature="0" />
    <path
       d="m 10130,3188 h 6614"
       id="path270"
       inkscape:connector-curvature="0" />
    <path
       d="m 16744,3188 788,-787"
       id="path272"
       inkscape:connector-curvature="0" />
    <path
       d="m 17532,2401 h 1889"
       id="path274"
       inkscape:connector-curvature="0" />
    <path
       d="m 9658,3661 472,-473"
       id="path276"
       inkscape:connector-curvature="0" />
    <path
       d="M 29181,5712 H 27996"
       id="path278"
       inkscape:connector-curvature="0" />
    <path
       d="m 29343,5551 -162,161"
       id="path280"
       inkscape:connector-curvature="0" />
    <path
       d="M 29343,3188 V 5551"
       id="path282"
       inkscape:connector-curvature="0" />
    <path
       d="m 27138,984 2205,2204"
       id="path284"
       inkscape:connector-curvature="0" />
    <path
       d="m 21154,984 h 5984"
       id="path286"
       inkscape:connector-curvature="0" />
    <path
       d="M 19736,2401 21154,984"
       id="path288"
       inkscape:connector-curvature="0" />
    <path
       d="M 7496,3137 H 9134"
       id="path290"
       inkscape:connector-curvature="0" />
    <path
       d="m 9658,3661 v 713"
       id="path292"
       inkscape:connector-curvature="0" />
    <path
       d="m 9134,3137 524,524"
       id="path294"
       inkscape:connector-curvature="0" />
    <path
       d="m 9658,4374 51,51"
       id="path296"
       inkscape:connector-curvature="0" />
    <path
       d="M 3673,4921 H 4933"
       id="path298"
       inkscape:connector-curvature="0" />
    <path
       d="M 6508,3976 H 5878"
       id="path300"
       inkscape:connector-curvature="0" />
    <path
       d="M 6508,3976 H 8398"
       id="path302"
       inkscape:connector-curvature="0" />
    <path
       d="m 8398,3976 315,315"
       id="path304"
       inkscape:connector-curvature="0" />
    <path
       d="m 8713,4291 v 630"
       id="path306"
       inkscape:connector-curvature="0" />
    <path
       d="m 8713,4921 630,630"
       id="path308"
       inkscape:connector-curvature="0" />
    <path
       d="m 9343,5551 h 1929"
       id="path310"
       inkscape:connector-curvature="0" />
    <path
       d="m 11272,5551 724,724"
       id="path312"
       inkscape:connector-curvature="0" />
    <path
       d="m 5878,3976 -945,945"
       id="path314"
       inkscape:connector-curvature="0" />
    <path
       d="m 12870,6275 351,-350"
       id="path316"
       inkscape:connector-curvature="0" />
    <path
       d="m 11996,6275 h 874"
       id="path318"
       inkscape:connector-curvature="0" />
    <path
       d="m 13221,5925 h 988"
       id="path320"
       inkscape:connector-curvature="0" />
    <path
       d="M 14284,4425 V 5850"
       id="path322"
       inkscape:connector-curvature="0" />
    <path
       d="m 14284,5850 -75,75"
       id="path324"
       inkscape:connector-curvature="0" />
    <path
       d="m 14284,5850 -75,75"
       id="path326"
       inkscape:connector-curvature="0" />
    <path
       d="M 6665,6968 H 6193"
       id="path328"
       inkscape:connector-curvature="0" />
    <path
       d="M 6665,6968 H 8713"
       id="path330"
       inkscape:connector-curvature="0" />
    <path
       d="M 10496,6275 H 9406"
       id="path332"
       inkscape:connector-curvature="0" />
    <path
       d="m 8713,6968 693,-693"
       id="path334"
       inkscape:connector-curvature="0" />
    <path
       d="M 4461,5236 H 3673"
       id="path336"
       inkscape:connector-curvature="0" />
    <path
       d="M 6193,6968 4461,5236"
       id="path338"
       inkscape:connector-curvature="0" />
    <path
       d="m 10496,6275 v 642"
       id="path340"
       inkscape:connector-curvature="0" />
    <path
       d="m 13264,7425 h 945"
       id="path342"
       inkscape:connector-curvature="0" />
    <path
       d="m 12807,6968 457,457"
       id="path344"
       inkscape:connector-curvature="0" />
    <path
       d="m 10547,6968 h 2260"
       id="path346"
       inkscape:connector-curvature="0" />
    <path
       d="m 10496,6917 51,51"
       id="path348"
       inkscape:connector-curvature="0" />
    <path
       d="m 23284,2425 h 1425"
       id="path350"
       inkscape:connector-curvature="0" />
    <path
       d="M 25091,4448 V 3661"
       id="path352"
       inkscape:connector-curvature="0" />
    <path
       d="m 25091,3661 472,-473"
       id="path354"
       inkscape:connector-curvature="0" />
    <path
       d="m 25563,3188 h 630"
       id="path356"
       inkscape:connector-curvature="0" />
    <path
       d="m 23996,4925 h 618"
       id="path358"
       inkscape:connector-curvature="0" />
    <path
       d="M 26284,3098 V 2425"
       id="path360"
       inkscape:connector-curvature="0" />
    <path
       d="m 26193,3188 91,-90"
       id="path362"
       inkscape:connector-curvature="0" />
    <path
       d="m 24614,4925 477,-477"
       id="path364"
       inkscape:connector-curvature="0" />
    <path
       d="m 20496,3725 v 296"
       id="path366"
       inkscape:connector-curvature="0" />
    <path
       d="m 21400,4925 h 2596"
       id="path368"
       inkscape:connector-curvature="0" />
    <path
       d="m 20496,4021 904,904"
       id="path370"
       inkscape:connector-curvature="0" />
    <path
       d="M 7496,4712 V 6137"
       id="path372"
       inkscape:connector-curvature="0" />
    <path
       d="m 20996,3725 v 251"
       id="path374"
       inkscape:connector-curvature="0" />
    <path
       d="m 23095,3925 h 901"
       id="path376"
       inkscape:connector-curvature="0" />
    <path
       d="m 22728,4291 367,-366"
       id="path378"
       inkscape:connector-curvature="0" />
    <path
       d="m 21311,4291 h 1417"
       id="path380"
       inkscape:connector-curvature="0" />
    <path
       d="m 20996,3976 315,315"
       id="path382"
       inkscape:connector-curvature="0" />
    <path
       d="m 19996,3725 v 353"
       id="path384"
       inkscape:connector-curvature="0" />
    <path
       d="m 21752,5393 744,744"
       id="path386"
       inkscape:connector-curvature="0" />
    <path
       d="m 21311,5393 h 441"
       id="path388"
       inkscape:connector-curvature="0" />
    <path
       d="m 19996,4078 1315,1315"
       id="path390"
       inkscape:connector-curvature="0" />
    <path
       d="M 23996,5925 H 22709"
       id="path392"
       inkscape:connector-curvature="0" />
    <path
       d="m 22709,5925 -213,212"
       id="path394"
       inkscape:connector-curvature="0" />
    <path
       d="m 26146,3925 h 1638"
       id="path396"
       inkscape:connector-curvature="0" />
    <path
       d="m 27784,3925 212,212"
       id="path398"
       inkscape:connector-curvature="0" />
    <path
       d="M 24890,6925 V 5531"
       id="path400"
       inkscape:connector-curvature="0" />
    <path
       d="M 24890,6925 H 21425"
       id="path402"
       inkscape:connector-curvature="0" />
    <path
       d="m 20996,6225 v 271"
       id="path404"
       inkscape:connector-curvature="0" />
    <path
       d="m 20996,6496 429,429"
       id="path406"
       inkscape:connector-curvature="0" />
    <path
       d="m 24890,5531 43,-43"
       id="path408"
       inkscape:connector-curvature="0" />
    <path
       d="m 24933,5488 v 0"
       id="path410"
       inkscape:connector-curvature="0" />
    <path
       d="m 24933,5488 563,-563"
       id="path412"
       inkscape:connector-curvature="0" />
    <path
       d="m 25496,4925 h 650"
       id="path414"
       inkscape:connector-curvature="0" />
    <path
       d="m 22496,7712 h 1921"
       id="path416"
       inkscape:connector-curvature="0" />
    <path
       d="m 24417,7712 44,43"
       id="path418"
       inkscape:connector-curvature="0" />
    <path
       d="m 19496,6225 v 345"
       id="path420"
       inkscape:connector-curvature="0" />
    <path
       d="m 19496,6570 555,555"
       id="path422"
       inkscape:connector-curvature="0" />
    <path
       d="m 20051,7125 h 630"
       id="path424"
       inkscape:connector-curvature="0" />
    <path
       d="m 20681,7125 587,587"
       id="path426"
       inkscape:connector-curvature="0" />
    <path
       d="m 21268,7712 h 1228"
       id="path428"
       inkscape:connector-curvature="0" />
    <path
       d="m 11284,4425 h 1425"
       id="path430"
       inkscape:connector-curvature="0" />
    <path
       d="m 15784,7425 h 944"
       id="path432"
       inkscape:connector-curvature="0" />
    <path
       d="m 19996,5653 v 572"
       id="path434"
       inkscape:connector-curvature="0" />
    <path
       d="m 19894,5551 102,102"
       id="path436"
       inkscape:connector-curvature="0" />
    <path
       d="m 17689,5551 h 2205"
       id="path438"
       inkscape:connector-curvature="0" />
    <path
       d="m 16902,6338 787,-787"
       id="path440"
       inkscape:connector-curvature="0" />
    <path
       d="M 16902,7251 V 6338"
       id="path442"
       inkscape:connector-curvature="0" />
    <path
       d="m 16728,7425 174,-174"
       id="path444"
       inkscape:connector-curvature="0" />
    <path
       d="m 19996,6225 h 500"
       id="path446"
       inkscape:connector-curvature="0" />
    <path
       d="m 15784,5925 h 586"
       id="path448"
       inkscape:connector-curvature="0" />
    <path
       d="M 18496,4429 V 3725"
       id="path450"
       inkscape:connector-curvature="0" />
    <path
       d="m 18477,4448 19,-19"
       id="path452"
       inkscape:connector-curvature="0" />
    <path
       d="m 17847,4448 h 630"
       id="path454"
       inkscape:connector-curvature="0" />
    <path
       d="M 16370,5925 17847,4448"
       id="path456"
       inkscape:connector-curvature="0" />
  </g>
  <g
     style="fill:#000000;fill-opacity:0;stroke:#000000;stroke-width:98.42520142;stroke-linecap:round;stroke-linejoin:round;stroke-opacity:1"
     id="g462"
     transform="translate(-389.77625,155.82619)">
    <path
       d="m 15784,5925 h 212"
       id="path460"
       inkscape:connector-curvature="0" />
  </g>
  <g
     style="fill:#FFFFFF; fill-opacity:0.0;  stroke:#FFFFFF; stroke-width:98.4252; stroke-opacity:1;  stroke-linecap:round; stroke-linejoin:round;"
     id="g464" />
  <g
     style="fill:#000000; fill-opacity:0.0;  stroke:#000000; stroke-width:98.4252; stroke-opacity:1;  stroke-linecap:round; stroke-linejoin:round;"
     id="g466" />
  <rect
     style="opacity:1;fill:none;fill-opacity:1;stroke:#000000;stroke-width:156.25;stroke-miterlimit:4;stroke-dasharray:none;stroke-opacity:1"
     id="rect1287"
     width="29711.729"
     height="10247.037"
     x="78.125"
     y="374.83801"
     inkscape:export-filename="/Users/macoscar/Documents/04_Projects/02_FabLab/04_Fabacademy/04.Assignment/FabISPMini/PNG/FabISPMini-brd.png"
     inkscape:export-xdpi="1000"
     inkscape:export-ydpi="1000" />
  <ellipse
     style="opacity:1;fill:#000000;fill-opacity:1;stroke:#000000;stroke-width:156.25;stroke-miterlimit:4;stroke-dasharray:none;stroke-opacity:1"
     id="path1289"
     cx="894.76807"
     cy="9846.7148"
     rx="339.12756"
     ry="330.85614" />
  <ellipse
     ry="330.85614"
     rx="339.12756"
     cy="1305.048"
     cx="894.76807"
     id="ellipse1291"
     style="opacity:1;fill:#000000;fill-opacity:1;stroke:#000000;stroke-width:156.25;stroke-miterlimit:4;stroke-dasharray:none;stroke-opacity:1" />
  <ellipse
     ry="330.85614"
     rx="339.12756"
     cy="9846.7148"
     cx="29019.779"
     id="ellipse1293"
     style="opacity:1;fill:#000000;fill-opacity:1;stroke:#000000;stroke-width:156.25;stroke-miterlimit:4;stroke-dasharray:none;stroke-opacity:1" />
  <ellipse
     style="opacity:1;fill:#000000;fill-opacity:1;stroke:#000000;stroke-width:156.25;stroke-miterlimit:4;stroke-dasharray:none;stroke-opacity:1"
     id="ellipse1295"
     cx="29019.779"
     cy="1305.048"
     rx="339.12756"
     ry="330.85614" />
</svg>
