<?xml version="1.0" standalone="no"?>
 <!DOCTYPE svg PUBLIC "-//W3C//DTD SVG 1.1//EN" 
 "http://www.w3.org/Graphics/SVG/1.1/DTD/svg11.dtd"> 
<svg xmlns="http://www.w3.org/2000/svg" version="1.1" 
    width="7.46252cm" height="2.7178cm" viewBox="0 0 29380 10700 ">
<title>SVG Picture created as FabISPMini-brd.svg date 2018/02/21 11:43:08 </title>
  <desc>Picture generated by PCBNEW </desc>
<g style="fill:#000000; fill-opacity:1;stroke:#000000; stroke-opacity:1;
stroke-linecap:round; stroke-linejoin:round; "
 transform="translate(0 0) scale(1 1)">
</g>
<g style="fill:#000000; fill-opacity:0.0; 
stroke:#000000; stroke-width:-0.000393701; stroke-opacity:1; 
stroke-linecap:round; stroke-linejoin:round;">
</g>
<g style="fill:#FFFFFF; fill-opacity:0.0; 
stroke:#FFFFFF; stroke-width:-0.000393701; stroke-opacity:1; 
stroke-linecap:round; stroke-linejoin:round;">
</g>
<g style="fill:#000000; fill-opacity:0.0; 
stroke:#000000; stroke-width:-0.000393701; stroke-opacity:1; 
stroke-linecap:round; stroke-linejoin:round;">
</g>
<g style="fill:#000000; fill-opacity:0.0; 
stroke:#000000; stroke-width:0; stroke-opacity:1; 
stroke-linecap:round; stroke-linejoin:round;">
</g>
<g style="fill:#000000; fill-opacity:1.0; 
stroke:#000000; stroke-width:0; stroke-opacity:1; 
stroke-linecap:round; stroke-linejoin:round;">
<polyline style="fill-rule:evenodd;"
points="27232,7610
27232,8240
26445,8240
26445,7610
27232,7610
" /> 
<polyline style="fill-rule:evenodd;"
points="25658,7610
25658,8240
24870,8240
24870,7610
25658,7610
" /> 
<polyline style="fill-rule:evenodd;"
points="10815,6098
11288,6098
11288,6452
10815,6452
10815,6098
" /> 
<polyline style="fill-rule:evenodd;"
points="10815,7397
11288,7397
11288,7751
10815,7751
10815,7397
" /> 
<polyline style="fill-rule:evenodd;"
points="9315,6098
9788,6098
9788,6452
9315,6452
9315,6098
" /> 
<polyline style="fill-rule:evenodd;"
points="9315,7397
9788,7397
9788,7751
9315,7751
9315,7397
" /> 
<polyline style="fill-rule:evenodd;"
points="23370,2759
23370,2090
24158,2090
24158,2759
23370,2759
" /> 
<polyline style="fill-rule:evenodd;"
points="24945,2759
24945,2090
25732,2090
25732,2759
24945,2759
" /> 
<polyline style="fill-rule:evenodd;"
points="6886,5106
6217,5106
6217,4318
6886,4318
6886,5106
" /> 
<polyline style="fill-rule:evenodd;"
points="6886,3531
6217,3531
6217,2744
6886,2744
6886,3531
" /> 
<polyline style="fill-rule:evenodd;"
points="22551,4175
22551,3675
23551,3675
23551,4175
22551,4175
" /> 
<polyline style="fill-rule:evenodd;"
points="22551,5175
22551,4675
23551,4675
23551,5175
22551,5175
" /> 
<polyline style="fill-rule:evenodd;"
points="22551,6175
22551,5675
23551,5675
23551,6175
22551,6175
" /> 
<polyline style="fill-rule:evenodd;"
points="24701,4175
24701,3675
25701,3675
25701,4175
24701,4175
" /> 
<polyline style="fill-rule:evenodd;"
points="24701,5175
24701,4675
25701,4675
25701,5175
24701,5175
" /> 
<polyline style="fill-rule:evenodd;"
points="24701,6175
24701,5675
25701,5675
25701,6175
24701,6175
" /> 
<polyline style="fill-rule:evenodd;"
points="21886,8106
21217,8106
21217,7318
21886,7318
21886,8106
" /> 
<polyline style="fill-rule:evenodd;"
points="21886,6531
21217,6531
21217,5744
21886,5744
21886,6531
" /> 
<polyline style="fill-rule:evenodd;"
points="26717,3744
27386,3744
27386,4531
26717,4531
26717,3744
" /> 
<polyline style="fill-rule:evenodd;"
points="26717,5318
27386,5318
27386,6106
26717,6106
26717,5318
" /> 
<polyline style="fill-rule:evenodd;"
points="8370,4759
8370,4090
9158,4090
9158,4759
8370,4759
" /> 
<polyline style="fill-rule:evenodd;"
points="9945,4759
9945,4090
10732,4090
10732,4759
9945,4759
" /> 
<polyline style="fill-rule:evenodd;"
points="11370,4759
11370,4090
12158,4090
12158,4759
11370,4759
" /> 
<polyline style="fill-rule:evenodd;"
points="12945,4759
12945,4090
13732,4090
13732,4759
12945,4759
" /> 
<polyline style="fill-rule:evenodd;"
points="12870,7759
12870,7090
13658,7090
13658,7759
12870,7759
" /> 
<polyline style="fill-rule:evenodd;"
points="14445,7759
14445,7090
15232,7090
15232,7759
14445,7759
" /> 
<polyline style="fill-rule:evenodd;"
points="12870,6259
12870,5590
13658,5590
13658,6259
12870,6259
" /> 
<polyline style="fill-rule:evenodd;"
points="14445,6259
14445,5590
15232,5590
15232,6259
14445,6259
" /> 
<polyline style="fill-rule:evenodd;"
points="23181,7362
23851,7362
23851,8149
23181,8149
23181,7362
" /> 
<polyline style="fill-rule:evenodd;"
points="23181,8937
23851,8937
23851,9724
23181,9724
23181,8937
" /> 
<polyline style="fill-rule:evenodd;"
points="6217,5744
6886,5744
6886,6531
6217,6531
6217,5744
" /> 
<polyline style="fill-rule:evenodd;"
points="6217,7318
6886,7318
6886,8106
6217,8106
6217,7318
" /> 
<polyline style="fill-rule:evenodd;"
points="20370,2759
20370,2090
21158,2090
21158,2759
20370,2759
" /> 
<polyline style="fill-rule:evenodd;"
points="21945,2759
21945,2090
22732,2090
22732,2759
21945,2759
" /> 
<polyline style="fill-rule:evenodd;"
points="16951,6450
16951,6000
17151,6000
17151,6450
16951,6450
" /> 
<polyline style="fill-rule:evenodd;"
points="17451,6450
17451,6000
17651,6000
17651,6450
17451,6450
" /> 
<polyline style="fill-rule:evenodd;"
points="17951,6450
17951,6000
18151,6000
18151,6450
17951,6450
" /> 
<polyline style="fill-rule:evenodd;"
points="18451,6450
18451,6000
18651,6000
18651,6450
18451,6450
" /> 
<polyline style="fill-rule:evenodd;"
points="18951,6450
18951,6000
19151,6000
19151,6450
18951,6450
" /> 
<polyline style="fill-rule:evenodd;"
points="19451,6450
19451,6000
19651,6000
19651,6450
19451,6450
" /> 
<polyline style="fill-rule:evenodd;"
points="19951,6450
19951,6000
20151,6000
20151,6450
19951,6450
" /> 
<polyline style="fill-rule:evenodd;"
points="19951,3950
19951,3500
20151,3500
20151,3950
19951,3950
" /> 
<polyline style="fill-rule:evenodd;"
points="19451,3950
19451,3500
19651,3500
19651,3950
19451,3950
" /> 
<polyline style="fill-rule:evenodd;"
points="18451,3950
18451,3500
18651,3500
18651,3950
18451,3950
" /> 
<polyline style="fill-rule:evenodd;"
points="17951,3950
17951,3500
18151,3500
18151,3950
17951,3950
" /> 
<polyline style="fill-rule:evenodd;"
points="17451,3950
17451,3500
17651,3500
17651,3950
17451,3950
" /> 
<polyline style="fill-rule:evenodd;"
points="16951,3950
16951,3500
17151,3500
17151,3950
16951,3950
" /> 
<polyline style="fill-rule:evenodd;"
points="18951,3950
18951,3500
19151,3500
19151,3950
18951,3950
" /> 
<polyline style="fill-rule:evenodd;"
points="18929,8759
18929,9074
17394,9074
17394,8759
18929,8759
" /> 
<polyline style="fill-rule:evenodd;"
points="17394,8543
17394,8228
18929,8228
18929,8543
17394,8543
" /> 
<polyline style="fill-rule:evenodd;"
points="17394,8011
17394,7696
18929,7696
18929,8011
17394,8011
" /> 
<polyline style="fill-rule:evenodd;"
points="2933,5305
2933,5167
3917,5167
3917,5305
2933,5305
" /> 
<polyline style="fill-rule:evenodd;"
points="2933,4990
2933,4852
3917,4852
3917,4990
2933,4990
" /> 
<polyline style="fill-rule:evenodd;"
points="2933,5935
2933,5797
3917,5797
3917,5935
2933,5935
" /> 
<polyline style="fill-rule:evenodd;"
points="2933,5620
2933,5482
3917,5482
3917,5620
2933,5620
" /> 
<polyline style="fill-rule:evenodd;"
points="768,7401
768,6614
1752,6614
1752,7401
768,7401
" /> 
<polyline style="fill-rule:evenodd;"
points="768,3858
768,3070
1752,3070
1752,3858
768,3858
" /> 
<polyline style="fill-rule:evenodd;"
points="2933,7401
2933,6614
3917,6614
3917,7401
2933,7401
" /> 
<polyline style="fill-rule:evenodd;"
points="2933,3858
2933,3070
3917,3070
3917,3858
2933,3858
" /> 
<polyline style="fill-rule:evenodd;"
points="2933,4675
2933,4537
3917,4537
3917,4675
2933,4675
" /> 
</g>
<g style="fill:#000000; fill-opacity:1.0; 
stroke:#000000; stroke-width:157.48; stroke-opacity:1; 
stroke-linecap:round; stroke-linejoin:round;">
</g>
<g style="fill:#000000; fill-opacity:0.0; 
stroke:#000000; stroke-width:157.48; stroke-opacity:1; 
stroke-linecap:round; stroke-linejoin:round;">
<path d="M3043 5866
L3831 5866
" />
<path d="M3043 4606
L3831 4606
" />
<path d="M3358 4606
L3673 4606
" />
<path d="M3673 4921
L3831 4921
" />
<path d="M3358 5236
L3673 5236
" />
<path d="M18162 8917
L17118 8917
" />
<path d="M17551 6948
L17551 6225
" />
<path d="M17551 6948
L16902 7598
" />
<path d="M16902 7598
L16902 8543
" />
<path d="M16902 8700
L16902 8543
" />
<path d="M17118 8917
L16902 8700
" />
<path d="M3201 5866
L3673 5866
" />
<path d="M6551 7712
L5449 7712
" />
<path d="M3988 5866
L3201 5866
" />
<path d="M4146 6023
L3988 5866
" />
<path d="M4146 6409
L4146 6023
" />
<path d="M5449 7712
L4146 6409
" />
<path d="M20209 8700
L24488 8700
" />
<path d="M18162 8385
L19894 8385
" />
<path d="M19894 8385
L20209 8700
" />
<path d="M24488 8700
L25264 7925
" />
<path d="M14536 4925
L15165 4925
" />
<path d="M14067 5393
L14536 4925
" />
<path d="M14067 8409
L14067 5393
" />
<path d="M14051 8425
L14067 8409
" />
<path d="M16365 3725
L17051 3725
" />
<path d="M15165 4925
L16365 3725
" />
<path d="M9551 7574
L9551 8425
" />
<path d="M8910 8425
L9551 8425
" />
<path d="M9551 8425
L11051 8425
" />
<path d="M8197 7712
L8910 8425
" />
<path d="M8197 7712
L6551 7712
" />
<path d="M17662 8354
L17630 8385
" />
<path d="M20819 1633
L21010 1443
" />
<path d="M20764 1633
L20819 1633
" />
<path d="M21010 1443
L25865 1443
" />
<path d="M26134 5925
L26193 5866
" />
<path d="M26193 5866
L26193 4921
" />
<path d="M26193 4921
L27925 4921
" />
<path d="M27925 4921
L27925 3503
" />
<path d="M27925 3503
L25865 1443
" />
<path d="M26134 5925
L25201 5925
" />
<path d="M25201 5925
L25201 7862
" />
<path d="M25201 7862
L25264 7925
" />
<path d="M20764 2425
L20764 1633
" />
<path d="M20764 1633
L20555 1425
" />
<path d="M17059 2874
L19106 2874
" />
<path d="M19106 2874
L20555 1425
" />
<path d="M17059 3717
L17059 2874
" />
<path d="M17059 3717
L17051 3725
" />
<path d="M11051 7574
L11051 8425
" />
<path d="M11051 8425
L14051 8425
" />
<path d="M17059 3717
L17051 3725
" />
<path d="M18051 6225
L18051 6921
" />
<path d="M18162 7031
L18162 7854
" />
<path d="M18051 6921
L18162 7031
" />
<path d="M4984 3137
L4827 3137
" />
<path d="M6551 3137
L4984 3137
" />
<path d="M4146 4606
L2886 4606
" />
<path d="M4303 4448
L4146 4606
" />
<path d="M4303 3661
L4303 4448
" />
<path d="M4827 3137
L4303 3661
" />
<path d="M16429 8700
L17059 9330
" />
<path d="M17059 9330
L19264 9330
" />
<path d="M19264 9330
L23516 9330
" />
<path d="M23516 9330
L26036 9330
" />
<path d="M26036 9330
L26839 8527
" />
<path d="M26839 8527
L26839 7925
" />
<path d="M17051 6225
L17051 6976
" />
<path d="M17051 6976
L16429 7598
" />
<path d="M16429 7598
L16429 8700
" />
<path d="M27051 5712
L27051 7712
" />
<path d="M27051 7712
L26839 7925
" />
<path d="M18477 2401
L18791 2401
" />
<path d="M9185 3188
L15799 3188
" />
<path d="M15799 3188
L16587 2401
" />
<path d="M16587 2401
L18477 2401
" />
<path d="M8713 3661
L9185 3188
" />
<path d="M28236 5712
L27051 5712
" />
<path d="M28398 5551
L28236 5712
" />
<path d="M28398 3188
L28398 5551
" />
<path d="M26193 984
L28398 3188
" />
<path d="M20209 984
L26193 984
" />
<path d="M18791 2401
L20209 984
" />
<path d="M6551 3137
L8189 3137
" />
<path d="M8713 3661
L8713 4374
" />
<path d="M8189 3137
L8713 3661
" />
<path d="M8713 4374
L8764 4425
" />
<path d="M4933 3976
L4933 4606
" />
<path d="M11051 6275
L10327 5551
" />
<path d="M8398 5551
L10327 5551
" />
<path d="M7768 4921
L8398 5551
" />
<path d="M7768 4291
L7768 4921
" />
<path d="M7453 3976
L7768 4291
" />
<path d="M5563 3976
L7453 3976
" />
<path d="M5563 3976
L4933 3976
" />
<path d="M4618 4921
L2886 4921
" />
<path d="M4933 4606
L4618 4921
" />
<path d="M11925 6275
L12276 5925
" />
<path d="M11051 6275
L11925 6275
" />
<path d="M12276 5925
L13264 5925
" />
<path d="M13339 4425
L13339 5850
" />
<path d="M13339 5850
L13264 5925
" />
<path d="M13339 5850
L13264 5925
" />
<path d="M5248 6968
L4618 6338
" />
<path d="M7768 6968
L8461 6275
" />
<path d="M9551 6275
L8461 6275
" />
<path d="M5721 6968
L7768 6968
" />
<path d="M5721 6968
L5248 6968
" />
<path d="M4618 5236
L2886 5236
" />
<path d="M4618 6338
L4618 5236
" />
<path d="M9551 6275
L9551 6917
" />
<path d="M12319 7425
L13264 7425
" />
<path d="M11862 6968
L12319 7425
" />
<path d="M9602 6968
L11862 6968
" />
<path d="M9551 6917
L9602 6968
" />
<path d="M22339 2425
L23764 2425
" />
<path d="M24146 4448
L24146 3661
" />
<path d="M24146 3661
L24618 3188
" />
<path d="M24618 3188
L25248 3188
" />
<path d="M23051 4925
L23669 4925
" />
<path d="M25339 3098
L25339 2425
" />
<path d="M25248 3188
L25339 3098
" />
<path d="M23669 4925
L24146 4448
" />
<path d="M19551 3725
L19551 4021
" />
<path d="M20455 4925
L23051 4925
" />
<path d="M19551 4021
L20455 4925
" />
<path d="M6551 4712
L6551 6137
" />
<path d="M20051 3725
L20051 3976
" />
<path d="M22150 3925
L23051 3925
" />
<path d="M21784 4291
L22150 3925
" />
<path d="M20366 4291
L21784 4291
" />
<path d="M20051 3976
L20366 4291
" />
<path d="M19051 3725
L19051 4078
" />
<path d="M20807 5393
L21551 6137
" />
<path d="M20366 5393
L20807 5393
" />
<path d="M19051 4078
L20366 5393
" />
<path d="M23051 5925
L21764 5925
" />
<path d="M21764 5925
L21551 6137
" />
<path d="M25201 3925
L26839 3925
" />
<path d="M26839 3925
L27051 4137
" />
<path d="M23945 6925
L23945 5531
" />
<path d="M23945 6925
L20480 6925
" />
<path d="M20051 6225
L20051 6496
" />
<path d="M20051 6496
L20480 6925
" />
<path d="M23945 5531
L23988 5488
" />
<path d="M23988 5488
L23988 5488
" />
<path d="M23988 5488
L24551 4925
" />
<path d="M24551 4925
L25201 4925
" />
<path d="M21551 7712
L23473 7712
" />
<path d="M23473 7712
L23516 7755
" />
<path d="M18551 6225
L18551 6570
" />
<path d="M18551 6570
L19106 7125
" />
<path d="M19106 7125
L19736 7125
" />
<path d="M19736 7125
L20323 7712
" />
<path d="M20323 7712
L21551 7712
" />
<path d="M10339 4425
L11764 4425
" />
<path d="M14839 7425
L15784 7425
" />
<path d="M19051 5653
L19051 6225
" />
<path d="M18949 5551
L19051 5653
" />
<path d="M16744 5551
L18949 5551
" />
<path d="M15957 6338
L16744 5551
" />
<path d="M15957 7251
L15957 6338
" />
<path d="M15784 7425
L15957 7251
" />
<path d="M19051 6225
L19551 6225
" />
<path d="M14839 5925
L15425 5925
" />
<path d="M17551 4429
L17551 3725
" />
<path d="M17532 4448
L17551 4429
" />
<path d="M16902 4448
L17532 4448
" />
<path d="M15425 5925
L16902 4448
" />
</g>
<g style="fill:#000000; fill-opacity:0.0; 
stroke:#000000; stroke-width:98.4252; stroke-opacity:1; 
stroke-linecap:round; stroke-linejoin:round;">
<path d="M14839 5925
L15051 5925
" />
</g>
<g style="fill:#FFFFFF; fill-opacity:0.0; 
stroke:#FFFFFF; stroke-width:98.4252; stroke-opacity:1; 
stroke-linecap:round; stroke-linejoin:round;">
</g>
<g style="fill:#000000; fill-opacity:0.0; 
stroke:#000000; stroke-width:98.4252; stroke-opacity:1; 
stroke-linecap:round; stroke-linejoin:round;">
</g>
<g style="fill:#000000; fill-opacity:0.0; 
stroke:#000000; stroke-width:39.3701; stroke-opacity:1; 
stroke-linecap:round; stroke-linejoin:round;">
<polyline fill="none;"
points="29028,324
29030,325
29033,325
29035,326
29038,326
29040,327
29042,328
29044,330
29047,331
29048,333
29050,335
29052,337
29053,339
29054,341
29055,344
29056,346
29057,349
29057,351
29057,354
29057,10118
29057,10120
29057,10123
29056,10125
29055,10128
29054,10130
29053,10132
29052,10134
29050,10137
29048,10138
29047,10140
29044,10142
29042,10143
29040,10144
29038,10145
29035,10146
29033,10147
29030,10147
29028,10147
366,10147
364,10147
361,10147
359,10146
356,10145
354,10144
352,10143
350,10142
347,10140
346,10138
344,10137
342,10134
341,10132
340,10130
339,10128
338,10125
337,10123
337,10120
337,10118
337,9645
337,354
337,351
337,349
338,346
339,344
340,341
341,339
342,337
344,335
346,333
347,331
350,330
352,328
354,327
356,326
359,326
361,325
364,325
366,324
26193,324
29028,324
" /> 
<polyline fill="none;"
points="396,9645
396,10088
28998,10088
28998,383
26193,383
396,383
396,9645
" /> 
</g> 
</svg>
